<?xml version="1.0" standalone="no"?>
<!DOCTYPE svg PUBLIC "-//W3C//DTD SVG 20010904//EN"
 "http://www.w3.org/TR/2001/REC-SVG-20010904/DTD/svg10.dtd">
<svg version="1.0" xmlns="http://www.w3.org/2000/svg"
 width="345.000000pt" height="345.000000pt" viewBox="0 0 345.000000 345.000000"
 preserveAspectRatio="xMidYMid meet">
<metadata>
Created by potrace 1.11, written by Peter Selinger 2001-2013
</metadata>
<g transform="translate(0.000000,345.000000) scale(0.100000,-0.100000)"
fill="#000000" stroke="none">
<path d="M1677 3329 c-137 -21 -248 -162 -235 -300 7 -73 54 -156 113 -201
185 -140 446 -11 448 222 1 175 -151 305 -326 279z"/>
<path d="M963 2654 c-66 -24 -138 -95 -162 -160 -70 -185 62 -385 254 -385
173 0 295 129 283 300 -8 104 -61 186 -153 233 -53 28 -164 34 -222 12z"/>
<path d="M2299 2656 c-128 -45 -209 -168 -194 -292 14 -110 99 -218 193 -244
109 -30 229 4 298 83 52 61 67 101 68 187 1 66 -3 82 -30 130 -34 61 -105 121
-164 139 -49 14 -126 13 -171 -3z"/>
<path d="M321 1999 c-176 -54 -256 -258 -164 -416 93 -159 317 -184 446 -49
54 56 72 103 72 191 0 66 -4 89 -25 128 -45 89 -131 145 -233 152 -34 2 -77 0
-96 -6z"/>
<path d="M1680 2005 c-1 -5 -2 -13 -1 -17 0 -5 -3 -8 -9 -8 -5 0 -10 5 -10 11
0 8 -6 7 -17 -2 -9 -8 -18 -13 -20 -11 -12 9 -24 -1 -18 -15 3 -10 7 -22 8
-28 1 -5 7 -14 12 -18 6 -5 2 -6 -8 -3 -12 4 -17 2 -14 -6 3 -11 35 -13 45 -3
2 2 -4 17 -13 35 -9 18 -15 34 -12 36 2 2 10 -8 17 -24 8 -15 16 -29 17 -31 4
-7 33 21 33 31 0 7 -5 6 -13 0 -10 -8 -16 -5 -27 11 -11 19 -11 20 1 11 18
-13 59 -16 59 -3 0 5 -4 9 -9 9 -5 0 -12 8 -14 18 -3 9 -6 13 -7 7z"/>
<path d="M1700 2000 c0 -5 5 -12 10 -15 6 -3 10 -10 10 -14 0 -13 -73 -81 -87
-81 -8 0 -11 -5 -8 -10 4 -6 18 -2 36 10 16 12 29 17 29 11 0 -6 -5 -11 -10
-11 -6 0 -2 -10 10 -22 11 -12 18 -24 15 -26 -2 -3 -13 6 -24 19 -16 20 -21
22 -35 10 -15 -12 -15 -16 -1 -31 8 -9 15 -20 15 -24 0 -5 -8 2 -18 14 -17 21
-19 21 -35 5 -22 -22 -21 -30 4 -32 17 -2 18 1 9 13 -9 10 -9 14 -1 14 11 0
15 -13 12 -37 -2 -14 15 -18 22 -5 2 4 2 0 0 -8 -10 -34 -5 -61 10 -59 24 3
37 -1 37 -12 0 -8 -5 -8 -15 1 -23 19 -19 -6 4 -29 11 -11 17 -22 13 -25 -3
-3 2 -6 12 -6 9 0 14 4 11 10 -3 5 0 7 8 4 20 -7 44 23 29 38 -9 9 -12 8 -12
-5 0 -9 -5 -17 -10 -17 -7 0 -7 6 0 20 6 11 15 20 20 20 5 0 22 20 38 43 l29
44 -54 -3 c-30 -1 -57 -5 -60 -7 -2 -3 3 -19 11 -36 13 -24 14 -35 4 -56 -6
-14 -15 -25 -20 -25 -5 0 -4 9 2 19 8 16 6 23 -12 35 -12 8 -25 13 -30 10 -4
-3 -8 0 -8 6 0 17 33 7 52 -15 22 -25 22 -17 2 23 -8 18 -12 37 -8 43 4 7 1
10 -7 7 -8 -3 -13 -12 -11 -22 2 -9 -1 -16 -5 -16 -5 0 -9 9 -10 20 -1 11 3
20 8 20 5 0 1 10 -11 22 -11 12 -17 24 -15 27 3 2 13 -5 21 -18 9 -13 22 -20
31 -17 8 3 11 1 8 -4 -3 -6 1 -10 10 -10 9 0 14 4 11 9 -11 17 26 21 39 4 11
-15 17 -15 40 -5 14 7 24 8 21 3 -3 -5 1 -12 10 -15 24 -9 28 -7 15 8 -14 17
9 29 37 19 15 -6 15 -5 3 10 -9 11 -10 17 -2 17 6 0 11 -4 11 -10 0 -5 7 -10
16 -10 8 0 13 4 10 9 -3 5 1 11 9 14 9 4 12 1 9 -8 -7 -17 -64 -48 -64 -34 0
5 -4 9 -9 9 -5 0 -8 -11 -8 -25 0 -14 3 -25 8 -25 5 0 9 5 9 12 0 6 3 8 6 5 4
-4 1 -13 -6 -22 -14 -17 0 -21 17 -4 8 8 13 8 17 0 4 -6 12 -11 18 -11 7 0 6
6 -2 15 -9 10 -9 15 -1 15 11 0 15 -13 12 -36 -2 -18 39 -25 46 -8 3 8 -3 40
-14 72 -18 55 -20 57 -56 58 -24 1 -42 -5 -53 -17 -10 -11 -21 -19 -26 -19 -5
0 3 11 18 25 15 14 21 25 14 25 -7 0 -19 -8 -26 -17 -12 -17 -14 -17 -27 2
-13 17 -18 18 -42 7 -14 -7 -24 -8 -21 -3 3 5 -1 12 -10 15 -24 9 -28 7 -14
-9 9 -10 9 -15 1 -15 -11 0 -15 13 -12 38 1 6 -2 12 -8 12 -5 0 -12 -6 -14
-12 -4 -9 -6 -9 -6 -2 -1 7 8 22 19 35 10 13 19 18 20 12 0 -7 -5 -13 -12 -13
-7 0 -3 -10 10 -22 12 -12 25 -18 29 -14 5 5 2 11 -4 13 -7 3 -13 9 -13 15 0
6 6 5 15 -2 9 -7 19 -10 22 -6 4 4 1 11 -7 16 -9 6 -10 10 -3 10 21 0 26 -21
9 -39 -16 -17 -14 -18 40 -15 64 3 72 7 54 29 -8 10 -9 15 -1 15 16 0 13 17
-5 24 -10 4 -13 2 -8 -6 4 -6 3 -8 -4 -4 -6 3 -13 2 -17 -4 -3 -5 -1 -10 5
-10 6 0 9 -4 6 -9 -4 -5 0 -12 6 -14 9 -4 9 -6 1 -6 -6 -1 -20 15 -32 34 -11
19 -16 35 -11 35 6 0 10 -4 10 -10 0 -5 5 -10 10 -10 17 0 11 17 -7 25 -10 3
-34 8 -53 11 -19 2 -45 6 -57 9 -13 2 -23 0 -23 -5z m34 -16 c3 -8 2 -12 -4
-9 -6 3 -10 10 -10 16 0 14 7 11 14 -7z m63 0 c-3 -4 3 -18 13 -32 22 -28 25
-42 9 -42 -5 0 -8 4 -5 8 3 5 -2 18 -10 30 -12 18 -19 20 -35 12 -10 -6 -19
-7 -19 -2 0 5 10 14 23 20 26 13 33 14 24 6z m-49 -128 c15 5 14 4 -1 -6 -15
-10 -21 -8 -32 7 -8 10 -15 22 -15 28 0 5 7 0 15 -12 10 -14 22 -20 33 -17z
m64 -22 c-13 -9 -19 -9 -28 4 -9 13 -9 19 4 28 13 9 19 9 28 -4 9 -13 9 -19
-4 -28z m165 -20 c3 -8 1 -20 -5 -26 -8 -8 -9 -5 -5 11 3 13 1 21 -6 21 -7 0
-9 -6 -5 -12 4 -7 4 -10 -1 -6 -4 4 -16 3 -26 -3 -11 -5 -19 -6 -19 -1 0 9 36
30 53 31 4 1 10 -6 14 -15z m-222 -41 c0 -6 3 -15 8 -19 4 -4 7 2 7 14 0 12 4
22 10 22 13 0 -4 -43 -18 -48 -11 -3 -14 4 -11 24 0 4 -5 11 -13 16 -10 8 -10
9 2 5 8 -2 15 -9 15 -14z m235 -8 c0 -8 -4 -15 -10 -15 -5 0 -7 7 -4 15 4 8 8
15 10 15 2 0 4 -7 4 -15z"/>
<path d="M1790 1850 c0 -5 5 -10 10 -10 6 0 10 5 10 10 0 6 -4 10 -10 10 -5 0
-10 -4 -10 -10z"/>
<path d="M2985 2003 c-196 -54 -281 -281 -165 -441 100 -139 305 -155 426 -34
60 60 79 106 79 197 0 70 -4 87 -30 133 -50 91 -126 140 -228 147 -34 2 -71 1
-82 -2z"/>
<path d="M1570 1960 c-13 -9 -13 -11 0 -19 8 -5 18 -7 24 -4 5 3 6 1 2 -5 -4
-6 -14 -8 -22 -5 -14 5 -15 3 -5 -15 8 -16 9 -28 1 -41 -16 -31 -11 -38 9 -14
10 12 21 20 24 17 3 -3 -6 -16 -19 -29 -27 -27 -31 -53 -9 -61 8 -4 13 -9 10
-14 -2 -4 6 -12 18 -19 24 -13 62 -71 47 -71 -6 0 -10 5 -10 11 0 5 -5 7 -12
3 -7 -5 -8 -3 -3 5 4 8 -8 27 -35 53 -35 34 -41 45 -35 66 6 26 6 26 -14 8
-20 -18 -41 -15 -41 7 0 7 4 6 10 -3 5 -8 12 -11 16 -7 11 11 -32 51 -45 43
-6 -4 -11 -15 -11 -25 0 -9 -5 -22 -12 -29 -9 -9 -9 -12 -1 -12 7 0 15 4 18
10 4 6 16 4 31 -6 13 -9 24 -12 24 -8 0 10 20 -17 20 -27 0 -15 -33 -18 -46
-4 -21 20 -29 19 -31 -6 -2 -17 1 -18 13 -9 10 9 14 9 14 1 0 -6 -5 -11 -11
-11 -8 0 -8 -4 0 -13 9 -12 8 -53 -2 -64 -2 -2 -10 3 -17 12 -11 13 -10 15 2
10 19 -8 20 24 2 46 -8 8 -12 25 -9 37 2 12 0 22 -6 22 -5 0 -9 -29 -9 -65 0
-39 4 -65 11 -65 6 0 8 -9 4 -20 -4 -12 -2 -20 5 -20 6 0 8 -4 5 -10 -3 -5 -1
-10 4 -10 6 0 11 -6 11 -12 0 -18 53 -78 68 -78 7 0 12 -4 12 -8 0 -5 17 -17
38 -26 40 -18 101 -32 90 -20 -4 3 3 15 15 25 12 10 17 18 12 19 -6 0 -16 -5
-23 -12 -9 -9 -15 -9 -24 0 -7 7 -17 12 -22 12 -6 0 -5 -5 2 -12 7 -7 12 -17
12 -22 0 -6 -7 -3 -15 7 -7 11 -11 25 -8 33 3 8 0 14 -6 14 -6 0 -11 -5 -11
-12 0 -6 -3 -8 -6 -5 -4 4 -1 13 6 22 7 8 8 15 3 15 -14 0 -32 -21 -29 -34 2
-6 1 -8 -1 -3 -3 4 -9 5 -14 1 -5 -3 -9 0 -9 5 0 6 5 11 11 11 5 0 7 5 3 12
-4 6 -3 9 2 5 5 -3 18 1 28 9 17 12 18 17 8 39 -7 15 -8 24 -2 20 5 -3 10 -1
10 4 0 6 5 11 11 11 5 0 7 -4 4 -10 -9 -15 4 -12 21 5 9 8 21 15 27 15 6 0 1
-7 -11 -16 -27 -19 -28 -30 -2 -37 20 -5 46 16 37 31 -3 4 -1 14 5 22 8 12 9
12 4 -2 -3 -10 -1 -20 5 -23 5 -4 0 -14 -12 -24 -19 -15 -20 -18 -5 -30 13
-11 19 -11 31 -1 8 7 15 17 15 23 0 7 -4 7 -12 -1 -7 -7 -16 -12 -22 -12 -5 0
-1 8 10 18 17 16 20 17 30 4 9 -12 6 -20 -15 -38 -32 -28 -16 -31 19 -4 22 17
24 21 12 41 -7 11 -12 23 -9 25 2 2 10 -8 18 -22 12 -24 12 -28 -11 -46 -24
-19 -34 -54 -18 -64 4 -3 8 1 8 8 0 8 5 6 11 -4 14 -25 33 -24 20 1 -8 14 -6
23 10 37 19 17 20 17 13 -1 -5 -11 -4 -16 2 -12 6 3 16 2 24 -3 32 -20 128 96
109 132 -11 20 -4 38 14 38 8 0 7 -3 -2 -9 -8 -5 -10 -14 -6 -22 6 -9 11 -6
17 11 12 32 -11 47 -33 20 -9 -10 -19 -17 -22 -13 -4 3 3 13 14 22 19 15 20
18 5 30 -13 11 -19 11 -31 1 -8 -7 -15 -17 -15 -22 0 -6 7 -5 15 2 9 7 18 10
21 7 9 -9 -31 -26 -44 -18 -9 5 -6 13 8 29 12 12 16 22 10 22 -5 0 -10 5 -10
10 0 12 51 -18 63 -37 4 -7 12 -13 18 -13 5 0 4 9 -3 20 -7 11 -17 20 -22 20
-5 0 -20 10 -33 21 -21 21 -23 21 -29 4 -6 -16 -11 -13 -35 16 -15 19 -31 31
-34 27 -4 -4 5 -19 19 -35 14 -15 26 -31 26 -36 0 -4 5 -5 10 -2 6 4 6 -3 -1
-18 -7 -16 -19 -24 -35 -24 -13 0 -21 4 -18 9 3 4 13 7 21 6 9 -2 18 3 20 10
3 6 -1 10 -9 9 -7 -2 -10 -2 -5 0 15 9 6 23 -14 20 -12 -1 -24 5 -26 13 -4 13
-3 13 6 0 5 -8 13 -11 17 -7 8 7 -14 37 -27 37 -5 0 -9 -5 -9 -12 0 -6 -10
-22 -22 -35 -16 -18 -19 -26 -10 -35 9 -9 4 -17 -20 -35 -18 -13 -37 -23 -43
-23 -10 0 -75 83 -75 96 0 3 -8 13 -18 22 -9 10 -13 14 -8 10 20 -16 28 -7 11
12 -10 11 -21 18 -24 15 -4 -2 -13 0 -20 4 -9 6 -4 16 19 40 17 17 28 31 23
31 -17 0 -35 41 -24 54 16 19 -9 49 -29 36z m-83 -122 c-3 -8 -6 -5 -6 6 -1
11 2 17 5 13 3 -3 4 -12 1 -19z m101 -104 c12 -8 22 -20 22 -25 0 -6 -8 -3
-17 6 -16 16 -18 16 -35 -5 -10 -12 -15 -26 -12 -31 3 -5 0 -9 -6 -9 -17 0 -7
33 15 52 11 10 15 17 8 18 -6 0 -15 -4 -18 -10 -8 -13 -35 -13 -35 1 0 5 4 8
8 5 4 -2 14 -1 22 5 20 12 22 11 48 -7z m239 -36 c-7 -10 -15 -18 -20 -18 -4
0 -5 5 -2 10 3 6 1 10 -4 10 -6 0 -11 5 -11 11 0 8 5 8 15 -1 18 -15 20 1 3
19 -11 11 -9 11 8 0 18 -10 20 -16 11 -31z m-248 -4 c-12 -15 -11 -16 9 -10
14 5 22 3 22 -4 0 -6 -4 -9 -9 -6 -5 3 -15 -2 -22 -11 -12 -15 -12 -16 4 -10
10 4 16 3 12 -2 -3 -5 0 -13 6 -16 5 -4 8 -13 5 -20 -2 -7 2 -22 10 -34 8 -11
13 -21 10 -21 -2 0 -11 -3 -20 -6 -9 -3 -16 -1 -16 6 0 6 5 8 10 5 19 -12 10
14 -12 35 -26 24 -32 25 -49 3 -12 -15 -12 -16 4 -10 23 9 49 -2 40 -17 -4 -6
-8 -15 -9 -21 0 -5 -2 -15 -2 -21 -3 -20 -28 -11 -29 10 -1 12 1 15 4 9 8 -22
21 -14 21 12 0 14 -4 25 -9 25 -5 0 -9 -5 -9 -12 0 -9 -3 -9 -12 0 -7 7 -16
12 -22 12 -6 0 -5 -5 2 -12 7 -7 12 -16 12 -22 0 -5 -6 -1 -14 9 -12 17 -11
22 13 45 23 23 28 24 49 11 15 -9 22 -10 22 -2 0 6 -11 17 -25 23 -21 10 -28
8 -40 -8 -8 -10 -15 -15 -15 -10 0 6 -6 2 -13 -8 -12 -16 -14 -16 -14 -2 0 15
10 20 30 17 4 0 7 3 7 7 0 19 -14 20 -39 5 l-26 -17 25 25 c18 17 27 21 32 13
10 -15 49 -6 47 10 -3 23 1 36 12 36 8 0 7 -6 -2 -16z m53 -32 c-21 -7 -13
-19 13 -19 26 0 34 12 13 20 -8 4 -9 6 -2 6 6 1 17 -6 24 -14 10 -12 10 -15
-1 -17 -8 0 -18 -2 -24 -2 -5 -1 -15 -5 -21 -9 -14 -8 -26 17 -18 38 4 8 11
12 17 8 8 -5 7 -8 -1 -11z m152 -7 c-10 -8 -23 -15 -28 -15 -6 0 -1 7 10 15
10 8 23 15 28 15 6 0 1 -7 -10 -15z m50 3 c5 -10 7 -10 12 0 3 6 11 12 17 12
7 0 -4 -14 -23 -29 -19 -16 -32 -33 -28 -36 4 -4 19 4 34 18 26 24 54 26 54 5
0 -6 -6 -5 -15 2 -13 11 -15 9 -13 -10 2 -13 -3 -25 -12 -27 -13 -4 -13 -3 0
6 8 5 11 13 7 17 -4 4 -16 -1 -26 -10 -24 -22 -44 -12 -35 17 6 19 5 20 -10 8
-10 -9 -16 -10 -16 -2 0 11 13 15 39 11 13 -1 13 1 2 14 -8 9 -9 16 -3 16 6 0
13 -6 16 -12z m79 -2 c10 -8 16 -19 15 -26 -2 -7 3 -15 10 -17 8 -3 10 1 5 13
-6 16 -5 17 9 4 9 -8 12 -17 7 -18 -5 -2 -7 -8 -4 -13 4 -5 0 -6 -8 -3 -9 3
-22 -4 -31 -17 -8 -13 -18 -20 -21 -18 -2 3 4 15 15 27 12 12 16 22 9 22 -6 0
-9 7 -5 15 3 8 -4 21 -17 30 -12 8 -17 15 -12 15 6 0 18 -7 28 -14z m-143 -36
c0 -5 -4 -10 -10 -10 -5 0 -10 5 -10 10 0 6 5 10 10 10 6 0 10 -4 10 -10z
m-60 -20 c0 -5 -5 -10 -11 -10 -5 0 -7 5 -4 10 3 6 8 10 11 10 2 0 4 -4 4 -10z
m180 -15 c-19 -23 -5 -48 22 -40 18 5 16 2 -7 -13 -29 -18 -61 -19 -49 -1 11
18 -33 8 -51 -11 -10 -11 -20 -18 -22 -16 -7 7 43 51 60 52 9 1 19 -7 22 -17
4 -11 11 -17 16 -13 6 4 5 11 -2 20 -9 12 -9 20 1 39 7 14 15 23 18 20 3 -2
-1 -11 -8 -20z m-37 -12 c-7 -2 -19 -2 -25 0 -7 3 -2 5 12 5 14 0 19 -2 13 -5z
m92 -3 c-3 -5 -11 -10 -16 -10 -6 0 -7 5 -4 10 3 6 11 10 16 10 6 0 7 -4 4
-10z"/>
<path d="M1533 1933 c-7 -2 -13 -9 -13 -14 0 -6 5 -7 10 -4 6 3 10 1 10 -4 0
-6 -9 -11 -19 -11 -11 0 -22 -4 -26 -9 -8 -13 36 -10 54 3 12 9 12 8 1 -11
-11 -16 -17 -19 -27 -11 -8 6 -13 7 -13 0 0 -10 29 -38 33 -31 26 46 28 51 17
64 -7 8 -9 19 -5 25 6 11 -1 12 -22 3z"/>
<path d="M1890 1930 c0 -5 5 -10 11 -10 8 0 8 -4 0 -14 -9 -11 -8 -15 5 -20
30 -11 40 12 16 34 -24 22 -32 25 -32 10z"/>
<path d="M1835 1880 c3 -5 8 -10 11 -10 2 0 4 5 4 10 0 6 -5 10 -11 10 -5 0
-7 -4 -4 -10z"/>
<path d="M1750 1820 c0 -5 5 -10 11 -10 5 0 7 5 4 10 -3 6 -8 10 -11 10 -2 0
-4 -4 -4 -10z"/>
<path d="M1476 1802 c-2 -4 9 -15 25 -24 16 -9 31 -14 33 -10 2 4 -9 15 -25
24 -16 9 -31 14 -33 10z"/>
<path d="M1990 1719 c0 -5 5 -7 10 -4 6 3 10 8 10 11 0 2 -4 4 -10 4 -5 0 -10
-5 -10 -11z"/>
<path d="M1645 1563 c5 -47 31 -76 56 -62 13 6 25 6 39 -1 11 -6 20 -9 20 -6
0 10 -49 57 -83 80 l-35 24 3 -35z m62 -30 c5 -15 -25 -24 -33 -11 -4 6 -3 8
4 4 6 -3 13 -2 17 4 3 5 -3 10 -14 10 -12 0 -21 4 -21 10 0 12 43 -3 47 -17z"/>
<path d="M1819 1486 c7 -8 19 -12 27 -9 18 7 10 16 -18 20 -17 3 -19 1 -9 -11z"/>
<path d="M1719 1474 c-9 -11 -9 -18 -1 -26 9 -9 12 -8 12 5 0 9 5 17 11 17 5
0 8 -4 5 -9 -3 -5 6 -8 19 -8 14 0 25 3 25 8 0 5 -3 8 -7 7 -5 -1 -18 3 -29
10 -18 9 -24 9 -35 -4z"/>
<path d="M1044 1343 c-12 -2 -28 -19 -37 -38 -9 -19 -22 -35 -29 -35 -10 0
-10 2 0 9 7 4 14 17 15 29 0 11 5 18 9 16 4 -3 8 0 8 5 0 14 -6 14 -33 -1 -12
-7 -28 -13 -35 -14 -17 -3 -42 -24 -42 -35 0 -5 7 -6 15 -3 8 4 13 9 11 13 -3
4 5 8 16 8 12 1 25 8 29 15 7 10 9 10 9 0 0 -7 -16 -20 -35 -29 -19 -9 -31
-21 -28 -27 4 -6 -3 -3 -14 7 -11 9 -23 14 -26 10 -10 -10 -8 -25 2 -19 5 3
14 -1 21 -9 9 -10 9 -15 1 -15 -6 0 -11 5 -11 11 0 5 -4 8 -9 4 -5 -3 -13 0
-16 6 -10 16 -58 -60 -58 -92 0 -16 -4 -26 -9 -23 -4 3 -8 0 -8 -5 0 -6 3 -11
8 -11 4 0 13 -9 19 -19 10 -15 9 -20 -2 -25 -8 -3 -17 0 -21 6 -5 7 -2 8 6 3
8 -5 11 -3 8 5 -10 30 -24 18 -22 -17 3 -68 4 -73 15 -73 6 0 9 7 6 14 -4 10
-1 13 8 10 11 -5 12 -10 3 -24 -7 -10 -16 -16 -21 -13 -5 3 -2 -6 7 -19 9 -14
13 -28 9 -32 -4 -4 2 -9 14 -12 12 -3 24 -13 28 -21 5 -14 3 -14 -12 -2 -14
11 -13 9 2 -13 11 -15 28 -28 38 -28 10 0 16 -4 13 -9 -7 -10 76 -51 113 -56
14 -2 26 -4 26 -5 0 -6 68 -3 72 2 2 5 15 8 29 8 13 0 24 5 24 11 0 6 -7 9
-14 6 -10 -4 -13 -1 -9 8 3 8 9 13 13 10 5 -3 11 1 14 7 3 7 4 4 3 -6 -1 -10
4 -21 12 -24 8 -3 11 0 7 6 -3 6 3 12 16 14 18 2 23 9 21 28 -1 14 1 19 3 13
3 -7 12 -13 19 -13 11 0 9 9 -7 37 -12 20 -18 34 -13 31 6 -3 18 5 28 18 21
28 12 32 -15 7 -11 -9 -18 -11 -18 -5 0 7 3 12 8 12 4 0 7 18 8 40 0 37 -1 38
-17 24 -18 -17 -39 -12 -39 9 0 7 4 6 10 -3 5 -8 12 -11 15 -8 10 10 -27 68
-43 68 -10 0 -10 -4 2 -16 12 -11 13 -20 6 -34 -8 -15 -5 -22 12 -34 12 -8 25
-13 30 -10 4 3 8 0 8 -6 0 -7 -7 -10 -15 -7 -8 4 -17 2 -20 -3 -7 -11 -35 -2
-35 12 0 6 6 5 15 -2 8 -7 15 -8 15 -2 0 19 -27 33 -37 20 -15 -19 -12 -50 3
-44 8 3 11 0 7 -10 -5 -14 12 -20 20 -6 2 4 2 1 0 -6 -1 -8 3 -12 9 -9 7 2 12
11 10 21 -2 9 1 16 5 16 22 0 9 -38 -15 -50 -15 -6 -24 -9 -20 -5 4 4 -4 16
-17 27 -14 11 -23 23 -20 28 3 5 1 11 -5 15 -19 12 -10 -28 11 -51 l21 -22
-21 -7 c-12 -3 -21 -11 -21 -16 0 -12 17 -12 25 1 3 6 10 10 16 10 5 0 1 -8
-8 -18 -22 -22 -60 -8 -41 16 18 22 -7 40 -33 24 -12 -8 -23 -12 -25 -9 -2 2
7 10 21 17 22 12 27 11 45 -5 11 -10 20 -13 20 -7 0 6 -8 17 -17 24 -24 18
-25 46 -2 53 10 4 28 19 39 34 18 26 18 30 4 42 -21 17 -55 -14 -36 -33 9 -9
12 -8 12 5 0 9 5 17 10 17 18 0 -6 -34 -33 -49 -22 -11 -29 -11 -48 3 -27 19
-18 22 11 4 31 -20 48 4 26 36 -9 15 -12 26 -6 26 5 0 10 4 10 9 0 5 -11 9
-25 9 -14 0 -25 -4 -25 -9 0 -5 5 -9 12 -9 6 0 8 -3 5 -6 -4 -4 -13 -1 -22 6
-17 14 -21 0 -4 -17 6 -6 18 -9 27 -6 10 4 13 2 8 -5 -4 -7 -2 -12 3 -12 6 0
11 -5 11 -11 0 -8 -4 -8 -15 1 -25 21 -64 19 -80 -4 -8 -11 -15 -16 -15 -11 1
22 28 45 46 39 18 -5 18 -5 2 9 -10 8 -15 17 -11 20 3 4 -1 7 -11 7 -10 0 -14
-5 -10 -11 5 -8 1 -8 -14 0 -11 6 -28 8 -38 4 -12 -4 -15 -3 -10 6 5 8 18 10
32 7 19 -5 22 -3 18 11 -4 11 -3 14 3 7 16 -21 42 -23 65 -4 13 10 20 21 16
25 -4 4 -14 0 -23 -9 -17 -17 -28 -20 -38 -10 -8 8 3 34 15 34 6 0 5 -6 -2
-15 -15 -18 1 -20 18 -3 17 17 15 25 -8 31 -13 3 -25 -2 -33 -14 -8 -10 -17
-16 -20 -12 -4 3 2 13 14 21 16 11 18 17 8 28 -7 8 -18 13 -26 10 -15 -6 -43
3 -43 13 0 4 11 13 24 19 21 9 26 8 31 -8 3 -11 26 -33 50 -49 l43 -29 -4 38
c-2 25 2 42 11 50 9 8 15 8 15 2 0 -6 -6 -12 -12 -15 -7 -2 -10 -8 -6 -12 4
-4 13 -4 21 1 7 5 4 1 -6 -9 -17 -15 -18 -21 -8 -43 6 -15 7 -23 1 -19 -5 3
-10 4 -10 1 0 -2 -3 -13 -7 -23 -6 -15 -4 -16 9 -5 13 10 17 10 22 -3 3 -8 2
-23 -1 -32 -6 -16 -5 -16 10 -4 9 7 14 17 11 22 -3 5 3 6 13 2 16 -6 16 -5 4
10 -7 9 -17 14 -22 11 -5 -3 -9 0 -9 6 0 7 8 9 22 4 20 -6 21 -5 9 10 -9 10
-10 16 -2 16 11 0 15 -13 12 -37 -2 -15 25 -20 59 -10 8 2 12 2 8 0 -13 -7 -9
-24 5 -22 24 3 37 -1 37 -12 0 -8 -6 -7 -17 2 -15 12 -16 12 -10 -4 4 -10 7
-21 7 -23 0 -3 5 -2 10 1 6 3 5 -6 -2 -20 -11 -24 -10 -29 6 -41 19 -14 36
-11 36 7 0 5 -3 8 -7 8 -27 -4 -33 1 -21 21 13 21 38 27 38 10 0 -5 -5 -9 -11
-7 -6 1 -14 -5 -17 -13 -2 -8 -1 -12 3 -7 5 4 17 0 27 -10 10 -9 20 -14 23
-12 9 10 13 79 4 79 -5 0 -9 -5 -9 -12 0 -6 -3 -8 -7 -5 -3 4 2 16 11 26 17
18 17 23 2 75 -9 31 -21 56 -27 56 -6 0 -7 5 -4 10 3 6 2 10 -4 10 -5 0 -13 9
-16 21 -8 24 -23 14 -30 -20 -3 -14 0 -21 8 -18 7 2 11 13 9 23 -2 16 -1 16 7
4 7 -9 7 -18 1 -24 -13 -13 -13 -29 -1 -22 12 8 41 -3 41 -15 0 -4 -9 -13 -20
-19 -14 -7 -20 -7 -20 0 0 5 8 10 17 10 13 0 14 3 5 12 -19 19 -50 -15 -33
-36 11 -13 15 -14 35 -1 20 13 23 13 23 0 0 -8 -2 -13 -5 -10 -3 2 -13 0 -23
-5 -13 -7 -22 -6 -33 6 -9 8 -16 11 -16 5 0 -6 -5 -11 -12 -11 -9 0 -9 3 0 12
7 7 12 17 12 22 0 6 -11 -2 -25 -17 -14 -15 -31 -27 -38 -27 -6 0 -1 7 11 16
27 18 28 30 5 38 -10 3 -25 9 -33 12 -8 3 -5 -3 7 -14 12 -11 20 -22 16 -25
-3 -4 -13 3 -23 15 -15 19 -18 19 -31 6 -12 -14 -15 -14 -25 0 -8 11 -4 22 23
48 18 18 33 38 33 44 0 6 -7 4 -16 -4 -18 -18 -34 -21 -34 -5 0 5 4 8 9 5 13
-9 34 21 25 36 -4 7 -4 10 1 6 4 -4 14 0 22 10 13 15 13 14 3 -6 -15 -30 -5
-40 12 -13 7 12 17 21 22 21 6 0 5 -5 -2 -12 -19 -19 -14 -32 6 -17 15 13 16
12 4 -3 -8 -9 -19 -15 -26 -12 -21 8 -27 -35 -7 -46 18 -9 41 4 41 24 0 6 -5
5 -12 -2 -15 -15 -28 -15 -28 0 0 6 3 8 7 5 3 -4 18 3 32 15 14 13 20 16 13 6
-8 -9 -9 -19 -4 -22 6 -3 13 2 16 11 13 34 -80 90 -146 88 -20 -1 -35 2 -32 7
3 4 4 7 2 7 -2 -1 -12 -4 -24 -6z m18 -31 c-6 -2 -14 -3 -18 -2 -11 3 -45 -62
-40 -76 3 -7 14 -12 26 -11 12 1 18 7 16 14 -3 8 1 10 12 6 15 -6 15 -5 3 10
-7 9 -9 17 -3 17 19 0 21 -28 3 -44 -10 -9 -20 -13 -23 -10 -3 3 -9 1 -13 -5
-3 -7 2 -11 14 -11 12 0 21 -4 21 -10 0 -17 -41 5 -57 31 -14 22 -13 28 7 62
12 20 26 34 31 31 5 -3 9 0 9 6 0 6 5 8 12 4 9 -6 9 -9 0 -12z m48 14 c0 -2
-7 -7 -16 -10 -8 -3 -12 -2 -9 4 6 10 25 14 25 6z m50 -11 c0 -12 -19 -12 -23
0 -4 9 -1 12 9 8 7 -3 14 -7 14 -8z m-30 -16 c0 -5 -4 -7 -10 -4 -5 3 -10 1
-10 -5 0 -6 -5 -8 -11 -4 -8 4 -7 9 2 15 19 12 29 11 29 -2z m-44 -16 c20 -27
17 -38 -4 -13 -17 21 -19 21 -34 6 -9 -8 -18 -21 -21 -28 -2 -7 -7 -10 -11 -7
-6 6 38 59 50 59 4 0 13 -8 20 -17z m44 -13 c0 -5 -4 -10 -10 -10 -5 0 -10 5
-10 10 0 6 5 10 10 10 6 0 10 -4 10 -10z m-160 -11 c12 -8 10 -9 -8 -4 -15 4
-22 2 -20 -5 2 -7 -4 -15 -12 -17 -13 -4 -13 -3 0 6 8 6 11 11 7 11 -5 0 -5 5
-2 10 8 13 16 12 35 -1z m-86 -51 c-3 -5 2 -11 10 -14 9 -3 13 -10 10 -15 -3
-5 2 -9 11 -9 9 0 13 5 9 11 -5 8 -1 8 14 0 11 -6 28 -8 38 -4 12 4 15 3 10
-6 -5 -8 -18 -10 -32 -7 -19 5 -22 3 -18 -11 4 -11 3 -14 -3 -7 -16 21 -42 23
-65 4 -13 -10 -20 -21 -16 -25 4 -4 14 0 23 9 17 17 28 20 38 10 8 -8 -3 -34
-15 -34 -6 0 -5 6 2 15 15 18 -1 20 -18 3 -17 -17 -15 -25 8 -31 13 -3 25 2
33 14 8 10 17 16 20 12 4 -3 -2 -13 -14 -21 -16 -11 -18 -17 -8 -28 7 -8 18
-13 26 -10 7 3 20 3 28 0 11 -5 12 -10 2 -24 -8 -14 -15 -16 -24 -8 -9 7 -17
7 -29 -3 -15 -12 -14 -15 5 -30 11 -9 17 -19 14 -23 -3 -3 -12 3 -20 13 -8 12
-20 17 -33 14 -23 -6 -25 -14 -8 -31 17 -17 33 -15 18 3 -7 9 -8 15 -2 15 14
0 23 -28 11 -36 -5 -3 -16 0 -24 6 -17 14 -20 -1 -4 -17 12 -12 39 -6 52 11 5
7 6 4 3 -7 -4 -12 -2 -17 6 -14 7 2 12 11 10 20 -1 8 2 18 6 21 5 3 10 -5 10
-18 0 -16 -9 -28 -25 -35 -15 -7 -22 -7 -18 -1 3 5 -1 10 -10 10 -9 0 -14 -4
-11 -9 3 -5 -2 -12 -11 -15 -10 -4 -20 -1 -25 9 -5 8 -17 15 -26 16 -11 0 -13
2 -4 6 7 3 22 -3 33 -13 11 -10 19 -12 19 -6 0 7 -9 17 -19 24 -15 9 -17 15
-9 25 15 18 -2 16 -23 -3 -19 -17 -20 -10 -5 34 6 17 3 27 -11 37 -17 13 -17
14 2 28 17 13 18 18 7 42 -7 14 -8 23 -2 20 5 -3 10 -4 10 -1 0 2 3 13 7 23 6
15 4 16 -9 5 -13 -10 -17 -10 -21 1 -4 11 2 13 24 11 16 -2 29 1 29 6 0 6 -5
10 -12 10 -6 0 -8 3 -5 6 4 4 13 1 22 -6 18 -15 19 -1 1 23 -14 18 -32 24 -21
7 3 -5 1 -10 -4 -10 -13 0 -13 3 -5 24 5 12 9 13 24 4 10 -7 16 -16 14 -20z
m36 2 c0 -5 -4 -10 -10 -10 -5 0 -10 5 -10 10 0 6 5 10 10 10 6 0 10 -4 10
-10z m-85 -20 c3 -5 1 -10 -4 -10 -6 0 -11 5 -11 10 0 6 2 10 4 10 3 0 8 -4
11 -10z m135 -75 c0 -5 -5 -3 -10 5 -5 8 -10 20 -10 25 0 6 5 3 10 -5 5 -8 10
-19 10 -25z m304 -20 c26 -19 42 -19 26 0 -7 9 -8 15 -2 15 19 0 21 -28 3 -44
-20 -19 -31 -20 -31 -5 0 5 5 7 10 4 6 -3 10 -2 10 2 0 5 -12 16 -27 25 -16
10 -23 17 -18 17 6 0 19 -6 29 -14z m-254 -80 c-11 -13 -9 -15 10 -13 13 2 25
-3 27 -12 4 -13 3 -13 -6 0 -5 8 -13 11 -17 7 -4 -4 1 -16 10 -26 22 -24 12
-44 -17 -35 -19 6 -20 5 -8 -10 8 -9 9 -16 3 -16 -18 0 -20 24 -4 43 14 15 14
19 0 35 -16 18 -14 42 4 42 6 0 5 -6 -2 -15z m304 0 c-4 -8 -8 -15 -10 -15 -2
0 -4 7 -4 15 0 8 4 15 10 15 5 0 7 -7 4 -15z m-364 -5 c8 -5 12 -11 9 -14 -3
-3 -14 1 -25 9 -21 16 -8 20 16 5z m37 -57 c-9 -10 -17 -12 -17 -6 0 6 6 14
13 17 10 5 10 7 0 12 -7 3 -13 11 -13 17 0 6 8 4 17 -6 16 -16 16 -18 0 -34z
m80 5 c-3 -7 -5 -2 -5 12 0 14 2 19 5 13 2 -7 2 -19 0 -25z m-79 -76 c-6 -7
-9 -14 -7 -17 10 -9 59 -13 59 -4 0 5 5 9 11 9 8 0 8 -5 -1 -15 -7 -8 -16 -12
-21 -9 -5 3 -9 1 -9 -5 0 -17 17 -21 30 -6 12 15 40 10 40 -7 0 -6 -7 -4 -16
3 -15 12 -16 11 -11 -11 4 -14 4 -19 1 -12 -3 6 -10 12 -15 12 -6 0 -7 -4 -4
-10 10 -17 -4 -11 -24 9 -11 11 -17 22 -13 25 3 3 -2 6 -12 6 -10 0 -14 -5
-10 -12 4 -7 3 -8 -5 -4 -6 4 -20 2 -29 -6 -16 -12 -16 -11 -2 6 14 18 13 19
-2 13 -10 -4 -18 -2 -18 4 0 7 10 9 26 5 17 -5 23 -3 19 4 -4 6 -2 17 5 25 7
9 8 15 0 20 -5 3 -10 11 -10 18 0 6 6 2 14 -9 10 -13 11 -23 4 -32z m-25 25
c3 -8 1 -20 -5 -28 -8 -11 -9 -10 -4 4 4 11 2 17 -5 15 -6 -2 -9 -7 -7 -11 5
-13 -28 -28 -46 -21 -15 6 -11 34 5 34 4 0 6 -7 3 -15 -4 -8 -1 -15 5 -15 6 0
11 5 11 11 0 7 8 18 18 25 21 17 19 16 25 1z m109 -4 c-6 -3 -10 -9 -7 -13 3
-5 -3 -8 -12 -8 -10 0 -25 -1 -33 -4 -8 -3 -12 -3 -7 -1 4 3 4 10 0 16 -4 6 0
8 9 4 9 -3 24 0 35 8 10 7 20 11 23 8 3 -3 -1 -8 -8 -10z m128 -23 c-6 -11 -5
-22 3 -30 10 -12 9 -12 -5 -1 -15 11 -18 11 -18 1 0 -8 -3 -10 -6 -7 -4 4 1
18 10 32 9 14 12 25 6 25 -6 0 -13 -7 -16 -15 -4 -9 -15 -20 -25 -26 -15 -7
-17 -6 -13 6 3 8 10 12 15 9 5 -3 9 0 9 7 0 6 8 18 17 25 22 15 36 -1 23 -26z
m-97 -25 c15 -11 17 -17 7 -32 -10 -15 -11 -16 -6 -1 3 11 -3 23 -17 33 -12 8
-17 15 -12 15 6 0 18 -7 28 -15z m-93 -45 c0 -5 -2 -10 -4 -10 -3 0 -8 5 -11
10 -3 6 -1 10 4 10 6 0 11 -4 11 -10z"/>
<path d="M846 1097 c3 -15 -1 -28 -10 -37 -15 -11 -15 -14 1 -25 15 -11 16
-16 4 -41 l-13 -29 24 21 c12 11 35 28 51 37 15 10 27 22 27 27 0 5 -20 22
-45 39 -44 30 -45 30 -39 8z m59 -47 c0 -7 -10 -16 -22 -21 -14 -5 -23 -5 -23
1 0 6 9 10 20 10 11 0 20 5 20 10 0 6 -9 10 -20 10 -11 0 -20 4 -20 10 0 6 9
6 23 1 12 -5 22 -14 22 -21z"/>
<path d="M950 1050 c0 -5 5 -10 10 -10 6 0 10 5 10 10 0 6 -4 10 -10 10 -5 0
-10 -4 -10 -10z"/>
<path d="M1030 950 c0 -5 5 -10 10 -10 6 0 10 5 10 10 0 6 -4 10 -10 10 -5 0
-10 -4 -10 -10z"/>
<path d="M2327 1333 c-3 -2 -41 -10 -59 -12 -4 -1 2 -16 13 -35 19 -33 19 -36
4 -66 -9 -18 -15 -33 -13 -35 10 -10 42 -8 45 3 3 6 -1 10 -9 9 -7 -2 -10 -2
-5 0 4 3 5 9 2 13 -3 5 7 21 22 35 23 23 25 26 8 21 -15 -4 -25 1 -37 22 -16
26 -16 28 2 28 13 0 16 -4 9 -12 -6 -8 -4 -16 8 -25 15 -12 16 -12 10 3 -6 18
16 48 35 48 6 0 0 -8 -12 -18 -21 -17 -21 -19 -4 -32 16 -13 17 -13 11 3 -4
10 -1 18 6 19 7 0 19 2 27 3 19 2 70 -26 70 -39 0 -5 -8 -2 -18 7 -27 25 -36
21 -15 -7 10 -13 22 -22 26 -19 5 3 4 -4 -2 -16 -9 -16 -9 -26 0 -42 6 -12 7
-19 2 -16 -4 3 -16 -6 -26 -19 -21 -28 -12 -32 15 -7 16 14 20 11 17 -13 -1
-12 63 -45 77 -40 7 3 12 14 11 26 -1 12 -7 18 -14 16 -8 -3 -10 1 -6 12 6 15
5 15 -10 3 -9 -7 -17 -9 -17 -3 0 17 28 22 40 7 13 -15 30 -11 30 6 0 6 -4 8
-9 5 -5 -3 -14 1 -21 9 -9 10 -9 15 -1 15 6 0 11 -3 11 -8 0 -8 72 -10 79 -2
11 12 -17 43 -33 37 -10 -4 -14 -11 -11 -17 3 -5 1 -10 -4 -10 -14 0 -13 11 3
32 7 10 17 14 22 10 4 -4 2 1 -6 11 -13 18 -14 18 -22 -2 -8 -23 -16 -25 -36
-12 -10 6 -10 10 3 21 13 11 15 10 9 -4 -3 -9 -1 -16 5 -16 20 0 11 45 -11 60
-53 34 -70 40 -88 30 -21 -11 -53 -3 -44 12 5 8 -81 10 -89 1z m152 -29 c-12
-15 -11 -16 11 -10 14 4 20 4 14 -1 -6 -4 -16 -17 -23 -28 -10 -16 -11 -16 -7
-2 3 11 0 20 -9 24 -13 5 -13 7 2 19 24 18 28 17 12 -2z m59 -41 c-5 -6 -17
-9 -26 -6 -15 6 -15 5 -3 -10 12 -15 12 -17 -3 -11 -18 7 -18 7 -10 28 5 14 9
14 22 4 13 -11 14 -10 7 11 -6 21 -5 22 8 10 10 -9 12 -18 5 -26z m-28 -53 c0
-3 -9 -11 -19 -17 -15 -10 -20 -9 -25 2 -3 8 -3 22 0 30 5 11 10 12 25 2 10
-6 19 -14 19 -17z m30 0 c0 -5 -4 -10 -10 -10 -5 0 -10 5 -10 10 0 6 5 10 10
10 6 0 10 -4 10 -10z m81 -17 c13 -16 12 -17 -3 -4 -10 7 -18 15 -18 17 0 8 8
3 21 -13z m-118 -18 c-25 -17 -21 -41 8 -50 10 -4 19 -11 19 -16 0 -14 -47 19
-54 38 -6 15 18 42 39 43 5 0 0 -7 -12 -15z"/>
<path d="M2470 1210 c0 -5 5 -10 10 -10 6 0 10 5 10 10 0 6 -4 10 -10 10 -5 0
-10 -4 -10 -10z"/>
<path d="M2430 1330 c0 -5 5 -10 10 -10 6 0 10 5 10 10 0 6 -4 10 -10 10 -5 0
-10 -4 -10 -10z"/>
<path d="M2245 1300 c3 -6 -1 -10 -9 -10 -9 0 -16 -5 -16 -11 0 -5 -4 -8 -9
-5 -4 3 -19 -7 -32 -22 -13 -15 -20 -24 -15 -20 5 5 15 -1 23 -12 8 -11 19
-20 25 -20 6 0 1 12 -13 27 -22 26 -22 26 -1 9 17 -15 25 -17 34 -8 15 15 28
15 28 2 0 -5 -3 -9 -7 -7 -11 3 -53 -40 -53 -54 0 -6 7 -3 16 5 14 14 18 14
42 -2 32 -20 94 -83 88 -89 -2 -3 -10 -5 -18 -7 -39 -6 -46 -36 -7 -36 10 0
19 -4 19 -10 0 -10 -27 -3 -47 13 -9 6 -21 4 -38 -7 -14 -9 -25 -12 -25 -6 0
5 6 10 13 10 9 0 8 3 -2 9 -10 7 -11 13 -2 27 11 18 11 18 9 0 -2 -10 3 -21
10 -23 6 -3 10 1 9 9 -2 7 -2 10 0 6 9 -17 21 -7 21 17 0 14 -4 25 -9 25 -5 0
-9 -5 -9 -10 0 -6 -8 -5 -20 2 -11 7 -20 16 -20 21 0 4 5 5 10 2 6 -3 10 -1
10 4 0 6 5 11 11 11 8 0 7 -6 -2 -17 -12 -15 -12 -16 4 -10 26 10 50 -2 36
-19 -8 -10 -6 -13 10 -11 31 2 27 13 -21 56 -23 20 -30 22 -43 11 -10 -8 -15
-9 -15 -1 0 6 5 11 11 11 5 0 7 5 4 10 -10 16 -37 -10 -31 -27 3 -8 1 -11 -4
-8 -6 3 -10 1 -10 -4 0 -6 -5 -11 -12 -11 -9 0 -9 3 0 12 7 7 12 17 12 22 0 6
-11 -2 -25 -17 -14 -15 -31 -27 -38 -27 -6 0 -1 7 11 16 12 8 22 20 22 26 0 6
-9 3 -20 -7 -11 -10 -20 -13 -20 -7 0 7 5 12 11 12 5 0 7 5 4 10 -7 12 12 40
26 40 5 0 9 -4 9 -10 0 -5 -5 -9 -11 -7 -6 1 -13 -3 -15 -8 -2 -6 4 -11 15
-12 22 -2 34 30 18 46 -35 35 -63 -19 -74 -138 -3 -40 -1 -61 5 -57 13 8 21
-15 15 -45 -3 -17 3 -33 20 -51 14 -15 22 -29 19 -32 -3 -3 -1 -6 5 -6 5 0 16
11 23 25 7 14 15 23 18 21 2 -3 -3 -15 -12 -28 -20 -28 -20 -38 0 -38 9 0 12
-5 8 -12 -4 -7 -3 -8 4 -4 7 4 12 2 12 -4 0 -10 37 -29 51 -26 3 0 13 -5 22
-12 10 -8 25 -11 38 -7 14 5 19 3 15 -3 -4 -7 5 -6 24 1 16 6 30 15 30 19 0
11 -8 10 -31 -2 -14 -8 -19 -8 -17 0 2 6 -15 23 -37 38 -22 16 -40 33 -40 39
0 7 -6 18 -13 25 -19 19 -51 -16 -36 -40 7 -9 19 -16 27 -14 8 1 31 -7 51 -19
38 -22 51 -38 16 -19 -11 6 -20 7 -20 3 0 -4 -6 2 -14 13 -13 17 -18 17 -36 6
-12 -8 -19 -9 -16 -3 4 6 -2 16 -13 23 -16 10 -18 16 -9 32 6 12 16 24 22 28
7 5 7 8 -3 8 -7 0 -11 6 -8 14 6 14 -10 36 -26 36 -5 0 -4 -7 3 -15 7 -9 10
-18 6 -22 -3 -3 -6 -1 -6 5 0 7 -5 12 -10 12 -6 0 -10 -6 -9 -12 3 -25 -1 -38
-12 -38 -8 0 -7 5 2 16 11 13 11 15 -2 14 -26 -4 -39 0 -39 11 0 8 4 8 14 0
11 -10 17 -8 29 9 14 20 13 60 -2 60 -4 0 -13 -6 -20 -12 -11 -10 -13 -10 -7
0 4 6 2 12 -3 12 -6 0 -11 5 -11 11 0 8 5 8 15 -1 23 -19 19 6 -5 30 -11 11
-17 20 -12 20 4 0 0 5 -8 10 -12 7 -11 9 5 8 11 0 27 1 35 4 8 3 12 3 8 1 -17
-9 -7 -20 17 -20 14 0 25 3 25 8 0 5 -5 9 -11 9 -5 0 -7 5 -3 11 10 16 26 -15
18 -35 -5 -12 -10 -14 -19 -6 -6 5 -15 7 -18 3 -4 -3 -13 0 -22 7 -8 7 -15 9
-15 5 0 -12 42 -66 48 -61 2 3 -1 12 -8 21 -8 10 -9 15 -1 15 6 0 11 -5 11
-11 0 -5 5 -7 12 -3 7 4 8 3 4 -5 -4 -6 -2 -18 4 -26 10 -12 15 -12 35 1 21
14 27 14 54 0 38 -20 38 -20 44 5 3 12 0 22 -9 26 -12 4 -12 8 3 18 17 13 17
15 -1 49 -10 19 -23 33 -27 30 -5 -3 -12 2 -15 10 -3 9 -12 16 -19 16 -6 0
-20 9 -30 20 -13 14 -14 19 -4 15 22 -8 40 39 26 70 -7 13 -18 27 -25 30 -7 2
-10 0 -7 -5z m15 -29 c0 -10 -41 -33 -47 -27 -3 3 2 8 11 12 9 3 14 9 11 13
-2 4 2 8 10 8 8 0 15 -3 15 -6z m-126 -226 c-4 -8 -8 -15 -10 -15 -2 0 -4 7
-4 15 0 8 4 15 10 15 5 0 7 -7 4 -15z m38 -62 c-6 -3 -9 -10 -6 -16 4 -7 1 -7
-7 1 -12 11 -12 14 1 22 8 5 17 6 20 3 3 -3 -1 -8 -8 -10z m95 -98 c0 -8 -4
-15 -9 -15 -4 0 -8 7 -8 15 0 8 4 15 8 15 5 0 9 -7 9 -15z m23 -66 c0 -6 -4
-7 -10 -4 -5 3 -10 11 -10 16 0 6 5 7 10 4 6 -3 10 -11 10 -16z"/>
<path d="M2370 1286 c0 -7 -8 -21 -19 -30 -31 -28 -16 -111 15 -85 8 6 14 16
14 21 0 6 -7 5 -15 -2 -9 -8 -15 -8 -15 -2 0 6 6 13 13 16 10 5 10 7 0 12 -7
3 -13 10 -13 15 0 5 9 4 19 -3 11 -7 18 -15 15 -19 -2 -4 1 -11 7 -14 7 -5 3
-12 -9 -21 -19 -13 -20 -54 -2 -54 13 0 33 30 26 37 -4 4 -12 1 -17 -7 -9 -13
-10 -13 -6 0 2 8 14 14 26 13 23 -3 23 -3 26 42 3 42 -4 55 -27 52 -12 -1 -22
4 -24 11 -1 7 0 8 3 2 8 -17 22 -11 20 8 -1 20 -37 28 -37 8z m24 -55 c-2 -3
-12 3 -22 13 -16 17 -16 18 5 5 12 -7 20 -15 17 -18z m26 -21 c0 -5 -4 -10
-10 -10 -5 0 -10 5 -10 10 0 6 5 10 10 10 6 0 10 -4 10 -10z"/>
<path d="M950 1210 c0 -5 4 -10 9 -10 6 0 13 5 16 10 3 6 -1 10 -9 10 -9 0
-16 -4 -16 -10z"/>
<path d="M1143 1213 c4 -3 -2 -12 -13 -20 -29 -20 -25 -37 4 -18 22 15 27 15
55 1 38 -20 41 -20 42 2 0 15 1 15 8 -2 5 -12 10 -15 14 -9 4 6 0 16 -8 23 -8
7 -12 16 -9 21 9 15 -13 10 -26 -6 -12 -14 -15 -14 -36 0 -24 15 -43 21 -31 8z"/>
<path d="M2315 1210 c3 -5 8 -10 11 -10 2 0 4 5 4 10 0 6 -5 10 -11 10 -5 0
-7 -4 -4 -10z"/>
<path d="M2317 1174 c-10 -11 -9 -26 2 -20 5 4 19 -10 32 -30 18 -29 20 -40
11 -55 -13 -20 0 -34 21 -24 6 4 4 0 -5 -8 -10 -8 -18 -18 -18 -23 0 -14 -49
-64 -63 -64 -6 0 -1 7 11 16 28 20 28 26 -4 41 -21 10 -30 9 -49 -3 -20 -13
-24 -13 -39 1 -13 13 -16 14 -16 2 0 -7 11 -20 25 -27 14 -8 24 -19 21 -26 -2
-6 9 -21 25 -33 16 -12 27 -26 24 -32 -4 -5 -2 -9 4 -9 18 0 23 20 7 26 -9 3
-14 10 -11 14 3 4 -5 10 -16 13 -14 4 -20 11 -16 20 3 8 1 19 -4 24 -5 5 1 14
14 22 19 12 20 12 11 0 -17 -23 -15 -59 4 -60 21 -2 23 -1 42 4 8 2 12 2 8 0
-17 -9 -7 -20 17 -20 14 0 25 3 25 8 0 5 -5 9 -11 9 -5 0 -7 5 -3 11 10 16 26
-15 18 -35 -5 -12 -10 -14 -19 -6 -6 5 -15 7 -18 3 -4 -3 -13 0 -22 7 -17 14
-21 0 -4 -17 8 -8 8 -13 0 -17 -15 -10 -14 -26 2 -26 8 0 22 -9 32 -20 10 -11
25 -18 34 -15 9 2 22 1 30 -4 10 -7 8 -12 -10 -26 -20 -14 -20 -16 -4 -10 11
4 26 8 33 8 7 0 11 6 8 14 -3 7 -1 13 3 13 5 0 11 -6 14 -12 2 -7 8 -9 13 -5
5 5 1 14 -9 22 -18 13 -17 14 7 31 15 9 29 14 33 10 3 -3 1 -6 -5 -6 -7 0 -12
-5 -12 -11 0 -6 7 -9 15 -6 8 4 17 3 19 -2 7 -11 -27 -10 -41 2 -9 6 -13 6
-13 -1 0 -19 25 -30 48 -21 21 8 32 39 13 39 -11 0 15 56 30 65 5 4 9 11 9 17
0 16 -38 -21 -45 -43 -4 -11 -11 -19 -16 -19 -6 0 -6 7 1 19 8 16 6 23 -12 35
-12 8 -25 13 -30 10 -4 -3 -8 0 -8 6 0 16 33 8 48 -13 11 -14 17 -15 28 -6 15
13 15 39 -1 52 -6 5 -4 7 5 4 8 -2 14 -9 13 -15 -2 -6 6 -14 17 -17 11 -4 18
-11 15 -16 -4 -5 1 -9 10 -9 9 0 14 4 11 9 -4 5 3 7 15 4 16 -5 20 -2 18 12
-2 10 -11 21 -19 23 -13 5 -13 3 0 -13 13 -17 13 -18 0 -10 -8 5 -21 10 -29
10 -17 0 -28 25 -11 25 6 0 8 -4 5 -10 -11 -17 11 -11 29 8 16 18 14 19 -40
16 -31 -1 -58 -5 -61 -7 -2 -3 1 -15 7 -27 6 -12 9 -24 6 -27 -8 -9 -27 47
-20 59 4 6 1 9 -7 6 -8 -3 -13 -12 -11 -22 2 -9 -1 -16 -5 -16 -5 0 -9 9 -10
20 -1 11 3 20 8 20 6 0 3 7 -5 16 -9 8 -14 20 -11 25 4 5 2 9 -4 9 -15 0 -23
-18 -11 -25 5 -3 10 -11 10 -18 0 -6 -7 -2 -15 10 -10 15 -21 20 -32 16 -13
-5 -12 -1 5 17 12 13 22 30 22 37 0 14 -34 35 -44 26 -8 -9 -8 -23 2 -22 26 4
32 -1 20 -21 -13 -21 -38 -27 -38 -10 0 6 5 9 11 8 6 -2 14 3 17 11 2 8 0 11
-6 7 -6 -3 -19 5 -29 19 -40 57 -49 66 -56 59z m69 -163 c-10 -11 -15 -25 -10
-32 4 -8 3 -10 -4 -5 -7 4 -12 2 -12 -3 0 -6 -5 -11 -10 -11 -17 0 32 69 49
70 2 0 -4 -9 -13 -19z m45 7 c1 -7 0 -20 -1 -27 -1 -13 1 -13 14 -2 11 9 16
10 16 2 0 -6 -3 -11 -7 -11 -5 0 -8 -18 -9 -40 0 -35 2 -38 15 -26 17 14 41
11 41 -6 0 -6 -6 -6 -15 2 -9 8 -15 9 -15 2 0 -6 5 -14 11 -17 6 -4 -2 -16
-20 -29 -17 -13 -27 -27 -23 -31 4 -5 -5 -1 -20 8 -16 10 -28 13 -28 7 0 -5
-5 -10 -11 -10 -8 0 -8 5 1 15 15 18 -1 20 -19 3 -11 -11 -11 -9 0 9 11 18 16
20 28 10 12 -10 14 -9 8 7 -4 10 -2 25 4 32 8 10 8 18 1 27 -5 6 -9 23 -8 37
1 19 6 24 21 22 16 -3 17 -2 6 12 -9 11 -10 16 -2 16 6 0 12 -6 12 -12z m-121
-32 c0 -3 -4 -8 -10 -11 -5 -3 -10 -1 -10 4 0 6 5 11 10 11 6 0 10 -2 10 -4z
m48 -98 c-2 -6 -10 -13 -16 -14 -7 -1 -8 0 -2 3 5 2 8 9 4 14 -3 5 0 9 6 9 7
0 10 -5 8 -12z"/>
<path d="M2403 974 c0 -14 6 -28 13 -31 11 -4 11 -9 1 -26 -15 -26 -16 -59 -2
-64 18 -5 36 13 29 30 -3 9 -10 14 -15 11 -5 -3 -4 6 3 21 10 22 9 27 -8 40
-19 15 -19 15 1 8 20 -6 20 -6 1 15 -24 27 -23 27 -23 -4z"/>
<path d="M2450 890 c0 -5 5 -10 10 -10 6 0 10 5 10 10 0 6 -4 10 -10 10 -5 0
-10 -4 -10 -10z"/>
<path d="M2570 1146 c-8 -11 -13 -26 -12 -32 1 -6 -5 -17 -14 -24 -13 -11 -20
-11 -43 3 -16 9 -31 14 -35 10 -5 -6 -10 12 -7 30 0 4 -3 7 -7 7 -17 0 -21
-13 -9 -31 9 -14 9 -21 -1 -31 -17 -17 -15 -33 3 -18 15 12 39 5 30 -10 -7
-12 22 -33 36 -24 8 4 9 3 5 -4 -4 -7 -1 -12 9 -12 9 0 14 4 11 9 -11 18 28
22 41 5 11 -15 17 -15 38 -6 15 7 24 8 20 2 -3 -5 0 -10 7 -10 10 0 9 -3 -2
-10 -8 -5 -11 -12 -7 -17 10 -10 28 18 22 35 -2 6 1 12 8 13 7 0 3 4 -8 9 -13
5 -28 3 -42 -6 -18 -11 -22 -11 -27 2 -8 21 -8 24 5 24 5 0 7 -4 4 -10 -10
-16 12 -12 29 5 17 17 30 20 21 5 -7 -11 8 -14 18 -3 4 3 -1 12 -11 20 -9 8
-12 12 -6 9 13 -7 16 41 3 50 -4 2 -6 10 -3 17 3 9 -6 13 -29 14 -24 1 -37 -5
-47 -21z m74 -28 c-3 -5 -12 -1 -20 7 -17 17 -39 21 -29 5 3 -5 1 -10 -4 -10
-13 0 -13 3 -5 23 5 13 9 13 34 -1 16 -9 26 -20 24 -24z m-22 -44 c-6 -11 -11
-13 -16 -5 -4 6 -2 11 3 11 6 0 11 4 11 9 0 5 -11 9 -25 9 -24 0 -34 -12 -17
-21 4 -2 1 -2 -5 -1 -7 2 -17 -5 -23 -15 -5 -10 -20 -18 -34 -18 -19 0 -22 2
-13 12 7 7 14 9 15 4 2 -5 9 -9 15 -9 5 0 8 3 5 6 -9 8 40 57 51 50 5 -4 13
-1 17 5 11 18 27 -18 16 -37z m-125 -4 c3 -10 2 -11 -4 -4 -4 6 -15 14 -23 17
-11 5 -9 6 4 4 11 -1 21 -9 23 -17z"/>
<path d="M1190 1085 c1 -17 29 -49 37 -41 4 3 -3 16 -15 29 -12 12 -22 17 -22
12z"/>
<path d="M2550 1020 c0 -5 5 -10 10 -10 6 0 10 5 10 10 0 6 -4 10 -10 10 -5 0
-10 -4 -10 -10z"/>
<path d="M2115 990 c3 -5 8 -10 11 -10 2 0 4 5 4 10 0 6 -5 10 -11 10 -5 0 -7
-4 -4 -10z"/>
<path d="M1280 965 c-7 -9 -9 -19 -5 -23 4 -4 10 -1 12 6 3 6 9 12 15 12 6 0
6 -6 -2 -15 -7 -9 -8 -15 -2 -15 12 0 24 29 16 41 -8 13 -20 11 -34 -6z"/>
<path d="M1246 925 c-6 -16 2 -45 13 -45 4 0 14 9 24 20 16 18 15 20 -3 30
-24 13 -27 13 -34 -5z"/>
<path d="M2561 915 c-14 -18 -20 -45 -14 -61 5 -13 9 -12 29 7 13 12 24 29 24
36 0 8 4 12 9 9 5 -3 11 0 14 8 6 16 -50 17 -62 1z m19 -15 c-12 -8 -12 -10
-1 -10 8 0 12 -3 8 -6 -9 -9 -28 6 -22 17 4 5 12 9 18 9 7 0 6 -4 -3 -10z"/>
<path d="M1661 658 c-1 -11 6 -16 18 -15 11 0 17 5 15 9 -3 5 -9 6 -14 3 -4
-3 -11 1 -13 7 -4 8 -6 7 -6 -4z"/>
<path d="M1726 647 c3 -10 9 -15 12 -12 3 3 0 11 -7 18 -10 9 -11 8 -5 -6z"/>
<path d="M1795 650 c-3 -5 -2 -10 4 -10 5 0 13 5 16 10 3 6 2 10 -4 10 -5 0
-13 -4 -16 -10z"/>
<path d="M1603 643 c9 -2 14 -9 11 -15 -4 -7 -2 -8 5 -4 15 10 4 26 -17 25
-15 -1 -15 -2 1 -6z"/>
<path d="M1751 633 c-1 -17 19 -27 31 -15 6 6 6 12 -3 17 -8 5 -10 4 -5 -3 4
-7 3 -12 -3 -12 -5 0 -12 6 -14 13 -4 9 -6 9 -6 0z"/>
<path d="M1830 636 c0 -2 7 -7 16 -10 8 -3 12 -2 9 4 -6 10 -25 14 -25 6z"/>
<path d="M1870 635 c0 -5 5 -17 10 -25 5 -8 10 -10 10 -5 0 6 -5 17 -10 25 -5
8 -10 11 -10 5z"/>
<path d="M1802 610 c-7 -11 -8 -20 -3 -20 9 0 24 30 18 36 -1 2 -8 -6 -15 -16z"/>
<path d="M1621 611 c-10 -7 -7 -9 12 -8 14 1 23 5 20 10 -6 9 -15 9 -32 -2z"/>
<path d="M1680 610 c-8 -5 -10 -10 -5 -10 6 0 3 -5 -5 -10 -9 -6 -10 -10 -3
-10 7 0 17 9 23 20 12 23 11 24 -10 10z"/>
<path d="M1726 612 c-3 -5 1 -9 9 -9 8 0 12 4 9 9 -3 4 -7 8 -9 8 -2 0 -6 -4
-9 -8z"/>
<path d="M1840 602 c9 -19 30 -23 30 -5 0 4 -3 3 -7 0 -3 -4 -12 1 -20 11 -13
15 -13 15 -3 -6z"/>
<path d="M1535 569 c1 -10 5 -22 10 -26 4 -5 5 -2 1 5 -4 6 -2 12 3 12 15 0
14 17 -2 23 -9 3 -13 -2 -12 -14z"/>
<path d="M1598 583 c7 -3 16 -2 19 1 4 3 -2 6 -13 5 -11 0 -14 -3 -6 -6z"/>
<path d="M1634 570 c0 -13 4 -16 10 -10 7 7 7 13 0 20 -6 6 -10 3 -10 -10z"/>
<path d="M1715 580 c-8 -13 3 -30 18 -30 7 0 6 4 -3 10 -13 9 -13 11 0 20 9 6
10 10 3 10 -6 0 -15 -4 -18 -10z"/>
<path d="M1866 575 c-11 -8 -16 -15 -10 -15 5 0 18 7 28 15 11 8 16 15 10 15
-5 0 -18 -7 -28 -15z"/>
<path d="M1501 564 c0 -11 3 -14 6 -6 3 7 2 16 -1 19 -3 4 -6 -2 -5 -13z"/>
<path d="M1750 571 c0 -10 19 -25 25 -20 1 2 -3 10 -11 17 -8 7 -14 8 -14 3z"/>
<path d="M1786 565 c10 -8 23 -15 28 -15 6 0 1 7 -10 15 -10 8 -23 15 -28 15
-6 0 -1 -7 10 -15z"/>
<path d="M1910 571 c0 -6 4 -13 10 -16 6 -3 7 1 4 9 -7 18 -14 21 -14 7z"/>
<path d="M1590 560 c0 -6 7 -10 15 -10 8 0 15 2 15 4 0 2 -7 6 -15 10 -8 3
-15 1 -15 -4z"/>
<path d="M1668 553 c6 -2 10 -8 7 -13 -3 -4 2 -11 10 -14 13 -4 14 -2 5 14 -6
11 -16 20 -23 19 -9 0 -9 -2 1 -6z"/>
<path d="M1885 550 c-3 -5 -1 -18 5 -27 9 -15 10 -14 4 6 -4 17 -3 21 6 16 9
-5 11 -4 6 3 -9 15 -13 15 -21 2z"/>
<path d="M1924 534 c-18 -14 -18 -15 4 -4 12 6 22 13 22 15 0 8 -5 6 -26 -11z"/>
<path d="M1506 529 c3 -5 9 -7 14 -4 4 3 11 0 13 -5 3 -6 4 -5 3 1 -1 7 -10
13 -19 15 -9 1 -15 -2 -11 -7z"/>
<path d="M1560 525 c-19 -22 -8 -25 13 -3 9 10 13 18 8 18 -5 0 -14 -7 -21
-15z"/>
<path d="M1624 528 c10 -6 22 -6 26 -2 5 5 -3 10 -18 11 -22 1 -24 0 -8 -9z"/>
<path d="M1726 528 c3 -5 10 -6 15 -3 13 9 11 12 -6 12 -8 0 -12 -4 -9 -9z"/>
<path d="M1790 526 c4 -4 16 -4 26 2 16 9 14 10 -8 9 -15 -1 -23 -6 -18 -11z"/>
<path d="M1835 520 c-3 -6 1 -7 9 -4 18 7 21 14 7 14 -6 0 -13 -4 -16 -10z"/>
<path d="M1950 521 c0 -5 7 -12 16 -15 14 -5 15 -4 4 9 -14 17 -20 19 -20 6z"/>
<path d="M1614 512 c3 -6 -2 -13 -11 -15 -16 -4 -16 -5 -1 -6 21 -1 32 15 17
25 -7 4 -9 3 -5 -4z"/>
<path d="M1750 511 c0 -10 19 -25 25 -20 1 2 -3 10 -11 17 -8 7 -14 8 -14 3z"/>
<path d="M1500 499 c0 -5 -4 -8 -9 -4 -5 3 -12 1 -15 -4 -4 -5 2 -8 11 -7 15
3 33 26 19 26 -3 0 -6 -5 -6 -11z"/>
<path d="M1726 493 c-6 -14 -5 -15 5 -6 7 7 10 15 7 18 -3 3 -9 -2 -12 -12z"/>
<path d="M1806 495 c-3 -8 -1 -15 5 -15 6 0 7 -5 3 -12 -4 -6 -3 -8 4 -5 5 4
8 16 5 27 -6 24 -9 25 -17 5z"/>
<path d="M1560 490 c-9 -6 -10 -10 -3 -10 6 0 15 5 18 10 8 12 4 12 -15 0z"/>
<path d="M1645 485 c-19 -16 -19 -16 2 -6 29 15 33 14 27 -4 -4 -8 -2 -15 4
-15 13 0 9 33 -4 37 -6 2 -19 -4 -29 -12z"/>
<path d="M1880 490 c8 -5 20 -10 25 -10 6 0 3 5 -5 10 -8 5 -19 10 -25 10 -5
0 -3 -5 5 -10z"/>
<path d="M1950 480 c-9 -6 -10 -10 -3 -10 6 0 15 5 18 10 8 12 4 12 -15 0z"/>
<path d="M1510 471 c0 -6 4 -12 8 -15 5 -3 9 1 9 9 0 8 -4 15 -9 15 -4 0 -8
-4 -8 -9z"/>
<path d="M1723 468 c-13 -6 -23 -15 -23 -20 0 -5 11 -1 25 8 37 24 35 30 -2
12z"/>
<path d="M1855 471 c-9 -15 13 -23 32 -11 15 9 14 10 -6 4 -16 -4 -21 -3 -17
5 4 6 5 11 2 11 -3 0 -7 -4 -11 -9z"/>
<path d="M1975 470 c-3 -5 -1 -10 4 -10 6 0 11 5 11 10 0 6 -2 10 -4 10 -3 0
-8 -4 -11 -10z"/>
<path d="M1486 453 c-8 -20 9 -40 19 -22 6 8 4 10 -5 4 -9 -5 -10 -2 -5 14 8
25 0 29 -9 4z"/>
<path d="M1540 464 c0 -13 18 -39 24 -34 2 3 -2 14 -10 24 -8 11 -14 16 -14
10z"/>
<path d="M1750 451 c0 -10 19 -25 25 -20 1 2 -3 10 -11 17 -8 7 -14 8 -14 3z"/>
<path d="M1825 449 c-4 -6 -5 -12 -2 -15 2 -3 7 2 10 11 7 17 1 20 -8 4z"/>
<path d="M1930 456 c0 -2 7 -7 16 -10 8 -3 12 -2 9 4 -6 10 -25 14 -25 6z"/>
<path d="M1630 439 c-12 -8 -10 -9 9 -4 17 5 22 4 16 -5 -5 -9 -4 -11 4 -6 6
4 9 12 6 17 -8 12 -16 11 -35 -2z"/>
<path d="M1677 425 c-4 -8 -3 -16 1 -19 4 -3 9 4 9 15 2 23 -3 25 -10 4z"/>
<path d="M1725 429 c-4 -6 -4 -13 -1 -16 3 -4 6 -1 6 6 0 7 5 9 12 5 7 -4 8
-3 4 4 -9 15 -13 15 -21 1z"/>
<path d="M1795 430 c3 -5 8 -10 11 -10 2 0 4 5 4 10 0 6 -5 10 -11 10 -5 0 -7
-4 -4 -10z"/>
<path d="M1839 433 c0 -5 -2 -16 -4 -25 -3 -15 0 -16 16 -8 23 13 25 22 4 14
-11 -5 -13 -2 -9 10 3 9 3 16 0 16 -3 0 -6 -3 -7 -7z"/>
<path d="M1940 425 c0 -5 5 -17 10 -25 5 -8 10 -10 10 -5 0 6 -5 17 -10 25 -5
8 -10 11 -10 5z"/>
<path d="M1505 410 c-3 -6 1 -7 9 -4 18 7 21 14 7 14 -6 0 -13 -4 -16 -10z"/>
<path d="M1559 403 c-13 -17 -13 -17 6 -3 11 8 22 16 24 17 2 2 0 3 -6 3 -6 0
-17 -8 -24 -17z"/>
<path d="M1620 410 c8 -5 20 -10 25 -10 6 0 3 5 -5 10 -8 5 -19 10 -25 10 -5
0 -3 -5 5 -10z"/>
<path d="M1770 415 c0 -2 10 -10 23 -16 20 -11 21 -11 8 4 -13 16 -31 23 -31
12z"/>
<path d="M1905 407 c-15 -12 -16 -15 -4 -22 8 -5 11 -5 7 0 -4 4 0 14 10 21
23 18 11 18 -13 1z"/>
<path d="M1466 387 c3 -10 9 -15 12 -12 3 3 0 11 -7 18 -10 9 -11 8 -5 -6z"/>
<path d="M1510 380 c-6 -11 -9 -20 -8 -20 2 0 11 9 21 20 9 11 13 20 7 20 -5
0 -14 -9 -20 -20z"/>
<path d="M1588 393 c7 -3 16 -2 19 1 4 3 -2 6 -13 5 -11 0 -14 -3 -6 -6z"/>
<path d="M1716 385 c-9 -26 -7 -32 5 -12 6 10 9 21 6 23 -2 3 -7 -2 -11 -11z"/>
<path d="M1620 385 c0 -5 5 -17 10 -25 5 -8 10 -10 10 -5 0 6 -5 17 -10 25 -5
8 -10 11 -10 5z"/>
<path d="M1670 380 c-8 -5 -10 -10 -5 -10 6 0 17 5 25 10 8 5 11 10 5 10 -5 0
-17 -5 -25 -10z"/>
<path d="M1742 382 c2 -8 7 -13 12 -12 5 1 13 -4 18 -12 8 -11 9 -11 6 0 -2 8
-7 13 -12 12 -5 -1 -13 4 -18 12 -8 11 -9 11 -6 0z"/>
<path d="M1544 368 c9 -5 23 -5 32 0 12 6 7 9 -16 9 -23 0 -28 -3 -16 -9z"/>
<path d="M1867 373 c-3 -5 6 -9 20 -10 19 -1 22 1 12 8 -17 11 -26 11 -32 2z"/>
<path d="M1793 355 c0 -8 4 -12 9 -9 5 3 6 10 3 15 -9 13 -12 11 -12 -6z"/>
<path d="M1832 361 c-11 -6 -10 -10 4 -15 9 -3 19 -4 22 -1 3 3 0 5 -7 5 -7 0
-9 5 -6 10 7 12 4 12 -13 1z"/>
<path d="M1955 361 c-3 -5 0 -13 6 -17 7 -4 9 -3 5 4 -3 5 0 13 6 15 9 4 10 6
1 6 -6 1 -14 -3 -18 -8z"/>
<path d="M1474 343 c2 -9 8 -19 14 -21 7 -2 9 -9 6 -14 -5 -7 -2 -8 6 -3 10 6
10 10 -2 19 -8 6 -13 17 -11 24 3 6 0 12 -5 12 -6 0 -9 -8 -8 -17z"/>
<path d="M1534 352 c3 -5 1 -12 -5 -14 -6 -2 2 -9 17 -16 25 -11 27 -10 12 1
-10 8 -15 16 -12 19 3 4 0 9 -7 14 -7 4 -10 3 -5 -4z"/>
<path d="M1575 351 c-3 -6 4 -15 15 -21 13 -7 20 -7 20 0 0 5 -7 10 -16 10 -8
0 -12 5 -9 10 3 6 4 10 1 10 -3 0 -7 -4 -11 -9z"/>
<path d="M1676 347 c3 -10 9 -15 12 -12 3 3 0 11 -7 18 -10 9 -11 8 -5 -6z"/>
<path d="M1737 344 c4 -12 3 -15 -5 -10 -7 4 -12 2 -12 -3 0 -6 5 -11 11 -11
5 0 7 -6 3 -12 -4 -7 -3 -10 1 -5 13 11 16 45 5 52 -6 4 -7 -1 -3 -11z"/>
<path d="M1910 350 c-8 -5 -10 -10 -5 -10 6 0 17 5 25 10 8 5 11 10 5 10 -5 0
-17 -5 -25 -10z"/>
<path d="M1875 340 c-3 -5 -3 -10 2 -10 4 0 1 -5 -7 -11 -12 -8 -12 -10 -1 -7
8 2 15 12 17 21 3 19 -2 22 -11 7z"/>
<path d="M1650 330 c0 -5 5 -10 10 -10 6 0 10 5 10 10 0 6 -4 10 -10 10 -5 0
-10 -4 -10 -10z"/>
<path d="M1804 329 c-3 -6 -2 -15 4 -21 6 -6 12 -6 17 3 5 8 4 10 -3 5 -7 -4
-12 -3 -12 3 0 5 6 12 13 14 9 4 9 6 0 6 -6 1 -15 -4 -19 -10z"/>
<path d="M1930 336 c0 -2 7 -7 16 -10 8 -3 12 -2 9 4 -6 10 -25 14 -25 6z"/>
<path d="M1976 323 c-6 -14 -5 -15 5 -6 7 7 10 15 7 18 -3 3 -9 -2 -12 -12z"/>
<path d="M1752 300 c-18 -29 -15 -38 4 -12 9 13 14 25 12 27 -2 2 -9 -5 -16
-15z"/>
<path d="M1895 309 c-5 -8 -4 -10 3 -5 7 4 12 2 12 -3 0 -13 27 -14 35 -2 3 5
0 13 -6 17 -8 4 -9 3 -5 -4 9 -15 -6 -16 -21 -1 -8 8 -13 7 -18 -2z"/>
<path d="M1626 294 c-9 -24 -2 -26 12 -4 7 11 8 20 3 20 -5 0 -12 -7 -15 -16z"/>
<path d="M1507 294 c-4 -4 -7 -12 -7 -18 0 -6 5 -4 10 4 9 13 11 13 21 0 9
-12 10 -12 7 -1 -5 17 -21 25 -31 15z"/>
<path d="M1708 282 c9 -10 19 -17 21 -16 6 5 -20 34 -30 34 -5 0 -1 -8 9 -18z"/>
<path d="M1780 289 c0 -5 5 -7 10 -4 6 3 10 8 10 11 0 2 -4 4 -10 4 -5 0 -10
-5 -10 -11z"/>
<path d="M1830 295 c0 -5 5 -17 10 -25 5 -8 10 -10 10 -5 0 6 -5 17 -10 25 -5
8 -10 11 -10 5z"/>
<path d="M1856 288 c3 -5 10 -6 15 -3 13 9 11 12 -6 12 -8 0 -12 -4 -9 -9z"/>
<path d="M1954 289 c-3 -6 -2 -15 3 -20 5 -5 9 -1 9 11 0 23 -2 24 -12 9z"/>
<path d="M1553 275 c0 -8 4 -12 9 -9 5 3 6 10 3 15 -9 13 -12 11 -12 -6z"/>
<path d="M1592 281 c-11 -7 -11 -9 0 -14 9 -3 15 1 15 9 0 8 -1 14 -1 14 -1 0
-7 -4 -14 -9z"/>
<path d="M1655 281 c-3 -5 0 -13 6 -17 8 -5 9 -3 4 6 -6 9 -1 10 16 5 19 -5
21 -4 9 4 -19 13 -27 14 -35 2z"/>
<path d="M1805 270 c-8 -13 3 -30 18 -29 9 0 9 2 0 6 -7 2 -13 9 -13 14 0 6 5
7 12 3 7 -4 8 -3 4 4 -9 15 -13 15 -21 2z"/>
<path d="M1860 263 c0 -6 8 -17 18 -24 16 -13 16 -13 2 6 -8 11 -16 22 -17 24
-2 2 -3 0 -3 -6z"/>
<path d="M1506 249 c3 -5 9 -7 14 -4 4 3 11 0 13 -5 3 -6 4 -5 3 1 -1 7 -10
13 -19 15 -9 1 -15 -2 -11 -7z"/>
<path d="M1578 253 c6 -2 12 -9 12 -14 0 -6 -5 -7 -12 -3 -7 5 -8 3 -3 -5 5
-9 11 -9 17 -3 12 12 2 32 -15 31 -9 0 -9 -2 1 -6z"/>
<path d="M1630 256 c0 -2 7 -7 16 -10 8 -3 12 -2 9 4 -6 10 -25 14 -25 6z"/>
<path d="M1690 252 c0 -5 7 -9 15 -9 8 0 12 4 9 9 -3 4 -9 8 -15 8 -5 0 -9 -4
-9 -8z"/>
<path d="M1747 249 c7 -7 15 -10 18 -7 3 3 -2 9 -12 12 -14 6 -15 5 -6 -5z"/>
<path d="M1900 251 c0 -5 7 -12 16 -15 14 -5 15 -4 4 9 -14 17 -20 19 -20 6z"/>
<path d="M1550 231 c0 -6 4 -13 10 -16 6 -3 7 1 4 9 -7 18 -14 21 -14 7z"/>
<path d="M1670 235 c0 -5 5 -17 10 -25 5 -8 10 -10 10 -5 0 6 -5 17 -10 25 -5
8 -10 11 -10 5z"/>
<path d="M1766 215 c-19 -28 -20 -35 -6 -35 6 0 9 3 8 8 -1 4 3 17 10 30 17
30 8 28 -12 -3z"/>
<path d="M1835 231 c-3 -5 -2 -12 3 -15 5 -3 9 1 9 9 0 17 -3 19 -12 6z"/>
<path d="M1646 213 c-6 -14 -5 -15 5 -6 7 7 10 15 7 18 -3 3 -9 -2 -12 -12z"/>
<path d="M1716 216 c10 -8 21 -12 24 -10 5 6 -21 24 -34 24 -6 0 -1 -6 10 -14z"/>
<path d="M1795 220 c-3 -6 1 -7 9 -4 18 7 21 14 7 14 -6 0 -13 -4 -16 -10z"/>
<path d="M1861 223 c-1 -6 6 -19 15 -27 19 -19 31 -21 15 -3 -6 8 -7 18 -3 22
4 5 2 5 -5 2 -6 -4 -14 -1 -16 5 -4 9 -6 9 -6 1z"/>
<path d="M1601 211 c-8 -5 -9 -11 -3 -15 5 -3 12 1 16 9 6 17 6 18 -13 6z"/>
<path d="M1558 182 c4 -10 7 -12 10 -4 2 7 9 9 15 5 7 -3 8 -2 4 2 -14 16 -36
14 -29 -3z"/>
<path d="M1644 184 c-18 -14 -18 -15 4 -4 12 6 22 13 22 15 0 8 -5 6 -26 -11z"/>
<path d="M1695 189 c-6 -8 -4 -10 5 -4 10 6 12 4 6 -11 -6 -15 -5 -17 5 -6 9
9 10 15 2 23 -8 8 -13 7 -18 -2z"/>
<path d="M1784 176 c-10 -8 -17 -16 -14 -19 3 -2 14 4 24 14 23 22 18 25 -10
5z"/>
<path d="M1599 163 c-13 -16 -12 -17 4 -4 16 13 21 21 13 21 -2 0 -10 -8 -17
-17z"/>
<path d="M1670 170 c0 -5 5 -10 11 -10 5 0 7 5 4 10 -3 6 -8 10 -11 10 -2 0
-4 -4 -4 -10z"/>
<path d="M1834 168 c-4 -5 -3 -12 0 -15 3 -4 6 -1 6 6 0 7 4 10 9 6 5 -3 12
-2 15 3 3 5 -2 9 -10 9 -8 0 -17 -4 -20 -9z"/>
<path d="M1628 153 c6 -2 18 -2 25 0 6 3 1 5 -13 5 -14 0 -19 -2 -12 -5z"/>
<path d="M1716 143 c-6 -14 -5 -15 5 -6 7 7 10 15 7 18 -3 3 -9 -2 -12 -12z"/>
<path d="M1790 151 c0 -6 4 -13 10 -16 6 -3 7 1 4 9 -7 18 -14 21 -14 7z"/>
<path d="M1741 134 c0 -11 3 -14 6 -6 3 7 2 16 -1 19 -3 4 -6 -2 -5 -13z"/>
</g>
</svg>
