<?xml version="1.0" encoding="UTF-8"?>
<svg width="135px" height="38px" viewBox="0 0 135 38" version="1.1" xmlns="http://www.w3.org/2000/svg" xmlns:xlink="http://www.w3.org/1999/xlink">
    <title>Group 21@2x</title>
    <g id="Designs" stroke="none" stroke-width="1" fill="none" fill-rule="evenodd">
        <g id="Desktop---Home" transform="translate(-164.000000, -2997.000000)" fill="#FBFCFE">
            <g id="Group-40" transform="translate(0.000000, 2966.000000)">
                <g id="Group-23" transform="translate(164.000000, 31.000000)">
                    <path d="M50.544,33.9341356 L50.544,26.0941356 L50.608,26.0941356 C51.1626667,26.9048023 51.872,27.5181356 52.736,27.9341356 C53.6,28.3501356 54.544,28.5581356 55.568,28.5581356 C56.784,28.5581356 57.8453333,28.323469 58.752,27.8541356 C59.6586667,27.3848023 60.416,26.755469 61.024,25.9661356 C61.632,25.1768023 62.0853333,24.2701356 62.384,23.2461356 C62.6826667,22.2221356 62.832,21.155469 62.832,20.0461356 C62.832,18.8728023 62.6826667,17.747469 62.384,16.6701356 C62.0853333,15.5928023 61.6266667,14.6488023 61.008,13.8381356 C60.3893333,13.027469 59.6106667,12.3768023 58.672,11.8861356 C57.7333333,11.395469 56.6133333,11.1501356 55.312,11.1501356 C54.288,11.1501356 53.3493333,11.3528023 52.496,11.7581356 C51.6426667,12.163469 50.9386667,12.8141356 50.384,13.7101356 L50.32,13.7101356 L50.32,11.5981356 L46,11.5981356 L46,33.9341356 L50.544,33.9341356 Z M54.352,25.1661356 C53.6266667,25.1661356 53.008,25.0168023 52.496,24.7181356 C51.984,24.419469 51.5733333,24.0301356 51.264,23.5501356 C50.9546667,23.0701356 50.7306667,22.5101356 50.592,21.8701356 C50.4533333,21.2301356 50.384,20.579469 50.384,19.9181356 C50.384,19.235469 50.448,18.5741356 50.576,17.9341356 C50.704,17.2941356 50.9226667,16.7288023 51.232,16.2381356 C51.5413333,15.747469 51.9466667,15.347469 52.448,15.0381356 C52.9493333,14.7288023 53.5733333,14.5741356 54.32,14.5741356 C55.0453333,14.5741356 55.6586667,14.7288023 56.16,15.0381356 C56.6613333,15.347469 57.072,15.7528023 57.392,16.2541356 C57.712,16.755469 57.9413333,17.3261356 58.08,17.9661356 C58.2186667,18.6061356 58.288,19.2568023 58.288,19.9181356 C58.288,20.579469 58.224,21.2301356 58.096,21.8701356 C57.968,22.5101356 57.7493333,23.0701356 57.44,23.5501356 C57.1306667,24.0301356 56.7253333,24.419469 56.224,24.7181356 C55.7226667,25.0168023 55.0986667,25.1661356 54.352,25.1661356 Z M70.2338462,28.5581356 C71.2578462,28.5581356 72.2605128,28.4088023 73.2418462,28.1101356 C74.2231795,27.811469 75.0765128,27.2888023 75.8018462,26.5421356 C75.8231795,26.819469 75.8605128,27.091469 75.9138462,27.3581356 C75.9671795,27.6248023 76.0365128,27.8861356 76.1218462,28.1421356 L76.1218462,28.1421356 L80.7298462,28.1421356 C80.5165128,27.8008023 80.3671795,27.2888023 80.2818462,26.6061356 C80.1965128,25.923469 80.1538462,25.2088023 80.1538462,24.4621356 L80.1538462,24.4621356 L80.1538462,15.8541356 C80.1538462,14.851469 79.9298462,14.0461356 79.4818462,13.4381356 C79.0338462,12.8301356 78.4578462,12.355469 77.7538462,12.0141356 C77.0498462,11.6728023 76.2711795,11.443469 75.4178462,11.3261356 C74.5645128,11.2088023 73.7218462,11.1501356 72.8898462,11.1501356 C71.9725128,11.1501356 71.0605128,11.2408023 70.1538462,11.4221356 C69.2471795,11.603469 68.4311795,11.907469 67.7058462,12.3341356 C66.9805128,12.7608023 66.3831795,13.3261356 65.9138462,14.0301356 C65.4445128,14.7341356 65.1778462,15.619469 65.1138462,16.6861356 L65.1138462,16.6861356 L69.6578462,16.6861356 C69.7431795,15.7901356 70.0418462,15.1501356 70.5538462,14.7661356 C71.0658462,14.3821356 71.7698462,14.1901356 72.6658462,14.1901356 C73.0711795,14.1901356 73.4498462,14.2168023 73.8018462,14.2701356 C74.1538462,14.323469 74.4631795,14.4301356 74.7298462,14.5901356 C74.9965128,14.7501356 75.2098462,14.9741356 75.3698462,15.2621356 C75.5298462,15.5501356 75.6098462,15.939469 75.6098462,16.4301356 C75.6311795,16.899469 75.4925128,17.2568023 75.1938462,17.5021356 C74.8951795,17.747469 74.4898462,17.9341356 73.9778462,18.0621356 C73.4658462,18.1901356 72.8791795,18.2861356 72.2178462,18.3501356 C71.5565128,18.4141356 70.8845128,18.499469 70.2018462,18.6061356 C69.5191795,18.7128023 68.8418462,18.8568023 68.1698462,19.0381356 C67.4978462,19.219469 66.9005128,19.491469 66.3778462,19.8541356 C65.8551795,20.2168023 65.4285128,20.7021356 65.0978462,21.3101356 C64.7671795,21.9181356 64.6018462,22.691469 64.6018462,23.6301356 C64.6018462,24.483469 64.7458462,25.219469 65.0338462,25.8381356 C65.3218462,26.4568023 65.7218462,26.9688023 66.2338462,27.3741356 C66.7458462,27.779469 67.3431795,28.0781356 68.0258462,28.2701356 C68.7085128,28.4621356 69.4445128,28.5581356 70.2338462,28.5581356 Z M71.9298462,25.5501356 C71.5671795,25.5501356 71.2151795,25.5181356 70.8738462,25.4541356 C70.5325128,25.3901356 70.2338462,25.2781356 69.9778462,25.1181356 C69.7218462,24.9581356 69.5191795,24.739469 69.3698462,24.4621356 C69.2205128,24.1848023 69.1458462,23.843469 69.1458462,23.4381356 C69.1458462,23.011469 69.2205128,22.659469 69.3698462,22.3821356 C69.5191795,22.1048023 69.7165128,21.875469 69.9618462,21.6941356 C70.2071795,21.5128023 70.4951795,21.3688023 70.8258462,21.2621356 C71.1565128,21.155469 71.4925128,21.0701356 71.8338462,21.0061356 C72.1965128,20.9421356 72.5591795,20.8888023 72.9218462,20.8461356 C73.2845128,20.803469 73.6311795,20.7501356 73.9618462,20.6861356 C74.2925128,20.6221356 74.6018462,20.5421356 74.8898462,20.4461356 C75.1778462,20.3501356 75.4178462,20.2168023 75.6098462,20.0461356 L75.6098462,20.0461356 L75.6098462,21.7421356 C75.6098462,21.9981356 75.5831795,22.339469 75.5298462,22.7661356 C75.4765128,23.1928023 75.3325128,23.6141356 75.0978462,24.0301356 C74.8631795,24.4461356 74.5005128,24.803469 74.0098462,25.1021356 C73.5191795,25.4008023 72.8258462,25.5501356 71.9298462,25.5501356 Z M85.8916923,33.9341356 C87.4490256,33.9341356 88.6650256,33.6461356 89.5396923,33.0701356 C90.414359,32.4941356 91.0970256,31.5341356 91.5876923,30.1901356 L98.4996923,11.5981356 L93.7956923,11.5981356 L90.1796923,22.9261356 L90.1156923,22.9261356 L86.3716923,11.5981356 L81.5396923,11.5981356 L87.3316923,27.1181356 C87.4596923,27.4381356 87.5236923,27.779469 87.5236923,28.1421356 C87.5236923,28.6328023 87.3796923,29.0808023 87.0916923,29.4861356 C86.8036923,29.891469 86.3610256,30.1261356 85.7636923,30.1901356 C85.3156923,30.211469 84.8676923,30.2008023 84.4196923,30.1581356 C83.9716923,30.115469 83.534359,30.0728023 83.1076923,30.0301356 L83.1076923,33.7741356 C83.5770256,33.8168023 84.0410256,33.8541356 84.4996923,33.8861356 C84.958359,33.9181356 85.422359,33.9341356 85.8916923,33.9341356 Z M104.589538,28.5261356 C105.378872,28.5261356 106.104205,28.4301356 106.765538,28.2381356 C107.426872,28.0461356 108.018872,27.779469 108.541538,27.4381356 C109.064205,27.0968023 109.506872,26.707469 109.869538,26.2701356 C110.232205,25.8328023 110.509538,25.3688023 110.701538,24.8781356 L110.701538,24.8781356 L110.765538,24.8781356 L110.765538,25.7421356 C110.765538,26.083469 110.792205,26.3981356 110.845538,26.6861356 C110.898872,26.9741356 111.000205,27.2248023 111.149538,27.4381356 C111.298872,27.651469 111.517538,27.8221356 111.805538,27.9501356 C112.093538,28.0781356 112.482872,28.1421356 112.973538,28.1421356 C113.314872,28.1421356 113.645538,28.099469 113.965538,28.0141356 L113.965538,28.0141356 L113.965538,26.9901356 C113.581538,27.0541356 113.282872,27.0861356 113.069538,27.0861356 C112.792205,27.0861356 112.578872,27.027469 112.429538,26.9101356 C112.280205,26.7928023 112.173538,26.6381356 112.109538,26.4461356 C112.045538,26.2541356 112.008205,26.0408023 111.997538,25.8061356 C111.986872,25.571469 111.981538,25.3368023 111.981538,25.1021356 L111.981538,25.1021356 L111.981538,15.5341356 C111.981538,14.275469 111.528205,13.2568023 110.621538,12.4781356 C109.714872,11.699469 108.269538,11.3101356 106.285538,11.3101356 C104.301538,11.3101356 102.770872,11.763469 101.693538,12.6701356 C100.616205,13.5768023 100.034872,14.9368023 99.9495385,16.7501356 L99.9495385,16.7501356 L101.165538,16.7501356 C101.250872,15.2781356 101.746872,14.179469 102.653538,13.4541356 C103.560205,12.7288023 104.749538,12.3661356 106.221538,12.3661356 C107.053538,12.3661356 107.757538,12.451469 108.333538,12.6221356 C108.909538,12.7928023 109.378872,13.027469 109.741538,13.3261356 C110.104205,13.6248023 110.370872,13.9661356 110.541538,14.3501356 C110.712205,14.7341356 110.797538,15.1501356 110.797538,15.5981356 C110.797538,16.1741356 110.765538,16.6541356 110.701538,17.0381356 C110.637538,17.4221356 110.477538,17.7368023 110.221538,17.9821356 C109.965538,18.227469 109.586872,18.419469 109.085538,18.5581356 C108.584205,18.6968023 107.896205,18.7981356 107.021538,18.8621356 L107.021538,18.8621356 L105.133538,19.0221356 C104.472205,19.0861356 103.784205,19.1928023 103.069538,19.3421356 C102.354872,19.491469 101.704205,19.7421356 101.117538,20.0941356 C100.530872,20.4461356 100.045538,20.9261356 99.6615385,21.5341356 C99.2775385,22.1421356 99.0855385,22.9261356 99.0855385,23.8861356 C99.0855385,25.4648023 99.5655385,26.6328023 100.525538,27.3901356 C101.485538,28.147469 102.840205,28.5261356 104.589538,28.5261356 Z M104.621538,27.4701356 C103.277538,27.4701356 102.221538,27.1768023 101.453538,26.5901356 C100.685538,26.003469 100.301538,25.1021356 100.301538,23.8861356 C100.301538,23.1181356 100.450872,22.4941356 100.749538,22.0141356 C101.048205,21.5341356 101.437538,21.155469 101.917538,20.8781356 C102.397538,20.6008023 102.936205,20.403469 103.533538,20.2861356 C104.130872,20.1688023 104.728205,20.0781356 105.325538,20.0141356 L105.325538,20.0141356 L107.373538,19.8221356 C108.120205,19.7581356 108.797538,19.6621356 109.405538,19.5341356 C110.013538,19.4061356 110.466872,19.1608023 110.765538,18.7981356 L110.765538,18.7981356 L110.765538,21.8701356 C110.765538,22.083469 110.706872,22.4941356 110.589538,23.1021356 C110.472205,23.7101356 110.200205,24.339469 109.773538,24.9901356 C109.346872,25.6408023 108.728205,26.2168023 107.917538,26.7181356 C107.106872,27.219469 106.008205,27.4701356 104.621538,27.4701356 Z M117.111385,34.0301356 L117.111385,24.7181356 L117.175385,24.7181356 C117.666051,26.0621356 118.444718,27.0328023 119.511385,27.6301356 C120.578051,28.227469 121.794051,28.5261356 123.159385,28.5261356 C124.418051,28.5261356 125.511385,28.3128023 126.439385,27.8861356 C127.367385,27.459469 128.135385,26.867469 128.743385,26.1101356 C129.351385,25.3528023 129.804718,24.451469 130.103385,23.4061356 C130.402051,22.3608023 130.551385,21.2088023 130.551385,19.9501356 C130.551385,18.7981356 130.402051,17.699469 130.103385,16.6541356 C129.804718,15.6088023 129.351385,14.691469 128.743385,13.9021356 C128.135385,13.1128023 127.367385,12.483469 126.439385,12.0141356 C125.511385,11.5448023 124.418051,11.3101356 123.159385,11.3101356 C122.263385,11.3101356 121.468718,11.4488023 120.775385,11.7261356 C120.082051,12.003469 119.490051,12.3501356 118.999385,12.7661356 C118.508718,13.1821356 118.114051,13.635469 117.815385,14.1261356 C117.516718,14.6168023 117.303385,15.0648023 117.175385,15.4701356 L117.175385,15.4701356 L117.111385,15.4701356 L117.111385,11.6941356 L115.895385,11.6941356 L115.895385,34.0301356 L117.111385,34.0301356 Z M123.159385,27.4701356 C122.007385,27.4701356 121.042051,27.2621356 120.263385,26.8461356 C119.484718,26.4301356 118.866051,25.875469 118.407385,25.1821356 C117.948718,24.4888023 117.623385,23.6888023 117.431385,22.7821356 C117.239385,21.875469 117.143385,20.931469 117.143385,19.9501356 C117.143385,18.9688023 117.250051,18.0248023 117.463385,17.1181356 C117.676718,16.211469 118.023385,15.4061356 118.503385,14.7021356 C118.983385,13.9981356 119.607385,13.4328023 120.375385,13.0061356 C121.143385,12.579469 122.071385,12.3661356 123.159385,12.3661356 C124.268718,12.3661356 125.212718,12.5848023 125.991385,13.0221356 C126.770051,13.459469 127.404718,14.035469 127.895385,14.7501356 C128.386051,15.4648023 128.748718,16.275469 128.983385,17.1821356 C129.218051,18.0888023 129.335385,19.011469 129.335385,19.9501356 C129.335385,20.9741356 129.212718,21.939469 128.967385,22.8461356 C128.722051,23.7528023 128.348718,24.547469 127.847385,25.2301356 C127.346051,25.9128023 126.706051,26.4568023 125.927385,26.8621356 C125.148718,27.267469 124.226051,27.4701356 123.159385,27.4701356 Z M134.657231,8.59013562 L134.657231,5.29413562 L133.441231,5.29413562 L133.441231,8.59013562 L134.657231,8.59013562 Z M134.657231,28.1421356 L134.657231,11.6941356 L133.441231,11.6941356 L133.441231,28.1421356 L134.657231,28.1421356 Z" id="payapi" fill-rule="nonzero"></path>
                    <g id="Group-22">
                        <circle id="Oval" transform="translate(19.142136, 5.000000) rotate(45.000000) translate(-19.142136, -5.000000) " cx="19.1421356" cy="5" r="3"></circle>
                        <circle id="Oval-Copy-6" transform="translate(26.213203, 12.071068) rotate(45.000000) translate(-26.213203, -12.071068) " cx="26.2132034" cy="12.0710678" r="3"></circle>
                        <circle id="Oval-Copy-7" transform="translate(33.284271, 19.142136) rotate(45.000000) translate(-33.284271, -19.142136) " cx="33.2842712" cy="19.1421356" r="3"></circle>
                        <circle id="Oval-Copy-10" transform="translate(12.071068, 12.071068) rotate(45.000000) translate(-12.071068, -12.071068) " cx="12.0710678" cy="12.0710678" r="3"></circle>
                        <circle id="Oval-Copy-9" opacity="0.5" transform="translate(19.142136, 19.142136) rotate(45.000000) translate(-19.142136, -19.142136) " cx="19.1421356" cy="19.1421356" r="3"></circle>
                        <circle id="Oval-Copy-8" opacity="0.5" transform="translate(26.213203, 26.213203) rotate(45.000000) translate(-26.213203, -26.213203) " cx="26.2132034" cy="26.2132034" r="3"></circle>
                        <circle id="Oval-Copy-13" transform="translate(5.000000, 19.142136) rotate(45.000000) translate(-5.000000, -19.142136) " cx="5" cy="19.1421356" r="3"></circle>
                        <circle id="Oval-Copy-12" opacity="0.5" transform="translate(12.071068, 26.213203) rotate(45.000000) translate(-12.071068, -26.213203) " cx="12.0710678" cy="26.2132034" r="3"></circle>
                        <circle id="Oval-Copy-11" opacity="0.25" transform="translate(19.142136, 33.284271) rotate(45.000000) translate(-19.142136, -33.284271) " cx="19.1421356" cy="33.2842712" r="3"></circle>
                    </g>
                </g>
            </g>
        </g>
    </g>
</svg>